<svg xmlns="http://www.w3.org/2000/svg" width="5px" height="8px">
    <path d="M4.894,3.798 L0.900,0.065 C0.843,0.012 0.777,-0.015 0.703,-0.015 C0.628,-0.015 0.563,0.012 0.506,0.065 L0.077,0.466 C0.020,0.519 -0.009,0.580 -0.009,0.650 C-0.009,0.720 0.020,0.781 0.077,0.835 L3.446,3.983 L0.077,7.132 C0.020,7.184 -0.009,7.246 -0.009,7.315 C-0.009,7.385 0.020,7.447 0.077,7.499 L0.506,7.900 C0.563,7.954 0.628,7.980 0.703,7.980 C0.777,7.980 0.843,7.954 0.900,7.900 L4.894,4.167 C4.951,4.114 4.980,4.053 4.980,3.983 C4.980,3.913 4.951,3.853 4.894,3.798 L4.894,3.798 Z"/>
</svg>