<svg xmlns="http://www.w3.org/2000/svg" width="5px" height="8px">
    <path d="M0.075,3.813 L4.094,0.066 C4.152,0.012 4.218,-0.015 4.293,-0.015 C4.367,-0.015 4.434,0.012 4.491,0.066 L4.922,0.467 C4.980,0.521 5.009,0.583 5.009,0.653 C5.009,0.723 4.980,0.784 4.922,0.838 L1.533,3.999 L4.922,7.158 C4.980,7.212 5.009,7.275 5.009,7.344 C5.009,7.414 4.980,7.475 4.922,7.529 L4.491,7.931 C4.434,7.985 4.367,8.012 4.293,8.012 C4.218,8.012 4.152,7.985 4.094,7.931 L0.075,4.183 C0.017,4.130 -0.011,4.068 -0.011,3.999 C-0.011,3.929 0.017,3.867 0.075,3.813 L0.075,3.813 Z"/>
</svg>