<svg xmlns="http://www.w3.org/2000/svg" width="26px" height="27px">
    <path d="M8.104,17.776 L22.944,17.776 C24.627,17.776 26.000,16.400 26.000,14.713 L26.000,8.453 C26.000,8.448 26.000,8.437 26.000,8.431 C26.000,8.415 26.000,8.403 26.000,8.387 C26.000,8.375 26.000,8.364 25.994,8.353 C25.994,8.342 25.989,8.326 25.989,8.314 C25.989,8.303 25.983,8.292 25.983,8.282 C25.978,8.270 25.978,8.259 25.972,8.242 C25.967,8.231 25.967,8.220 25.961,8.209 C25.956,8.197 25.956,8.187 25.950,8.175 C25.944,8.165 25.939,8.154 25.933,8.137 C25.928,8.126 25.922,8.115 25.917,8.109 C25.911,8.098 25.906,8.087 25.900,8.076 C25.895,8.064 25.889,8.059 25.884,8.049 C25.878,8.037 25.867,8.026 25.861,8.015 C25.856,8.004 25.850,7.998 25.839,7.987 C25.834,7.976 25.823,7.970 25.817,7.959 C25.812,7.948 25.801,7.943 25.795,7.931 C25.790,7.920 25.778,7.915 25.773,7.910 C25.762,7.899 25.756,7.893 25.745,7.882 C25.734,7.876 25.729,7.865 25.718,7.859 C25.706,7.854 25.695,7.843 25.684,7.837 C25.673,7.832 25.668,7.826 25.657,7.820 C25.646,7.815 25.635,7.810 25.623,7.798 C25.612,7.792 25.601,7.788 25.590,7.782 C25.579,7.776 25.568,7.771 25.557,7.765 C25.546,7.759 25.535,7.754 25.524,7.749 C25.513,7.743 25.502,7.743 25.491,7.738 C25.479,7.732 25.463,7.726 25.452,7.726 C25.441,7.726 25.430,7.721 25.424,7.721 C25.408,7.715 25.397,7.715 25.380,7.715 C25.374,7.715 25.369,7.710 25.358,7.710 L6.548,5.107 L6.548,2.476 C6.548,2.449 6.548,2.421 6.543,2.398 C6.543,2.394 6.543,2.388 6.537,2.377 C6.537,2.360 6.532,2.344 6.532,2.327 C6.526,2.310 6.526,2.299 6.520,2.282 C6.520,2.271 6.515,2.265 6.515,2.255 C6.509,2.238 6.504,2.222 6.498,2.205 C6.498,2.199 6.493,2.188 6.493,2.182 C6.487,2.166 6.482,2.155 6.471,2.138 C6.465,2.133 6.465,2.122 6.460,2.116 C6.454,2.105 6.448,2.094 6.437,2.083 C6.432,2.071 6.426,2.066 6.421,2.055 C6.415,2.044 6.410,2.038 6.404,2.027 C6.399,2.016 6.388,2.005 6.382,1.994 C6.377,1.989 6.371,1.983 6.365,1.977 C6.354,1.966 6.343,1.955 6.332,1.944 C6.327,1.939 6.321,1.933 6.316,1.928 C6.305,1.916 6.293,1.905 6.277,1.894 C6.271,1.888 6.260,1.883 6.255,1.878 C6.244,1.866 6.233,1.860 6.221,1.850 C6.205,1.839 6.188,1.828 6.177,1.822 C6.172,1.816 6.166,1.816 6.161,1.811 C6.139,1.799 6.111,1.788 6.089,1.777 L2.009,0.058 C1.627,-0.104 1.190,0.074 1.029,0.457 C0.869,0.840 1.046,1.278 1.428,1.439 L5.048,2.970 L5.048,6.367 L5.048,6.905 L5.048,11.034 L5.048,14.724 L5.048,19.385 C5.048,20.939 6.210,22.227 7.711,22.420 C7.439,22.875 7.279,23.409 7.279,23.974 C7.279,25.644 8.635,26.999 10.296,26.999 C11.956,26.999 13.312,25.640 13.312,23.974 C13.312,23.419 13.163,22.893 12.897,22.448 L19.617,22.448 C19.352,22.898 19.202,23.419 19.202,23.974 C19.202,25.644 20.558,26.999 22.219,26.999 C23.880,26.999 25.236,25.640 25.236,23.974 C25.236,22.309 23.880,20.950 22.219,20.950 L8.104,20.950 C7.240,20.950 6.543,20.245 6.543,19.385 L6.543,17.354 C6.996,17.621 7.533,17.776 8.104,17.776 ZM11.823,23.968 C11.823,24.812 11.137,25.495 10.301,25.495 C9.465,25.495 8.779,24.807 8.779,23.968 C8.779,23.131 9.465,22.442 10.301,22.442 C11.137,22.442 11.823,23.126 11.823,23.968 ZM23.747,23.968 C23.747,24.812 23.061,25.495 22.225,25.495 C21.389,25.495 20.702,24.807 20.702,23.968 C20.702,23.131 21.389,22.442 22.225,22.442 C23.061,22.442 23.747,23.126 23.747,23.968 ZM22.944,16.277 L8.104,16.277 C7.240,16.277 6.543,15.573 6.543,14.713 L6.543,11.022 L6.543,6.894 L6.543,6.617 L24.505,9.097 L24.505,14.707 C24.505,15.579 23.802,16.277 22.944,16.277 Z"/>
</svg>