<svg xmlns="http://www.w3.org/2000/svg" version="1.1" viewBox="0 0 25 25">
    <path d="M4.12934,24.99863h-3.3482c-0.43133,0 -0.78117,-0.34964 -0.78117,-0.78136v-5.7141c0,-0.43226 0.34985,-0.78081 0.78117,-0.78081h3.3482c0.43144,0 0.78129,0.34855 0.78129,0.78081v5.7141c0,0.43172 -0.34985,0.78136 -0.78129,0.78136zM1.56243,23.43591h1.78574v-4.15138h-1.78574zM10.82562,24.99863h-3.34808c-0.43144,0 -0.78129,-0.34964 -0.78129,-0.78136v-16.12512c0,-0.43117 0.34985,-0.78136 0.78129,-0.78136h3.34808c0.43144,0 0.78129,0.35019 0.78129,0.78136v16.12512c0,0.43172 -0.34985,0.78136 -0.78129,0.78136zM8.25871,23.43591h1.78562v-14.5624h-1.78562zM17.5219,24.99863h-3.34808c-0.43144,0 -0.78129,-0.34964 -0.78129,-0.78136v-10.78309c0,-0.43172 0.34985,-0.78136 0.78129,-0.78136h3.34808c0.43156,0 0.78129,0.34964 0.78129,0.78136v10.78309c0,0.43172 -0.34973,0.78136 -0.78129,0.78136zM14.95511,23.43591h1.78562v-9.21983h-1.78562zM24.21864,24.99863h-3.34843c-0.43156,0 -0.78129,-0.34964 -0.78129,-0.78136v-23.43751c0,-0.43172 0.34973,-0.78081 0.78129,-0.78081h3.34843c0.43156,0 0.78129,0.34909 0.78129,0.78081v23.43751c0,0.43172 -0.34973,0.78136 -0.78129,0.78136zM21.65139,23.43591h1.78608v-21.87479h-1.78608z"/>
</svg>