<svg xmlns="http://www.w3.org/2000/svg" version="1.1" viewBox="0 0 19 25">
    <path d="M18.22071,24.99808h-17.43633c-0.43774,0 -0.79262,-0.34964 -0.79262,-0.78081v-23.4293c0,-0.43172 0.35488,-0.78027 0.79262,-0.78027l13.04034,0c0.07997,-0.00352 0.15994,0.00504 0.2371,0.02506c0.13348,0.03414 0.25328,0.10164 0.34963,0.19298c0.00183,0.00173 0.00365,0.00346 0.00547,0.00521l4.34314,4.20208c0.15579,0.14243 0.25327,0.34598 0.25327,0.57253v19.21171c0,0.43117 -0.35488,0.78081 -0.79262,0.78081zM1.57688,1.56878v21.86713h15.85133l0,-17.64954h-3.56655c-0.43762,0 -0.79262,-0.34855 -0.79262,-0.78081l0,-3.43678zM14.65416,4.22475h1.62815l-1.62815,-1.57476zM15.19375,14.19748h-10.9837c-0.43774,0 -0.79262,-0.34964 -0.79262,-0.78191c0,-0.43117 0.35488,-0.78027 0.79262,-0.78027h10.9837c0.43762,0 0.7925,0.34909 0.7925,0.78027c0,0.43226 -0.35488,0.78191 -0.7925,0.78191zM15.19375,10.91719h-10.9837c-0.43774,0 -0.79262,-0.34964 -0.79262,-0.78081c0,-0.43226 0.35488,-0.78136 0.79262,-0.78136h10.9837c0.43762,0 0.7925,0.34909 0.7925,0.78136c0,0.43117 -0.35488,0.78081 -0.7925,0.78081zM15.19375,17.47667h-10.9837c-0.43774,0 -0.79262,-0.34909 -0.79262,-0.78136c0,-0.43117 0.35488,-0.78081 0.79262,-0.78081h10.9837c0.43762,0 0.7925,0.34964 0.7925,0.78081c0,0.43226 -0.35488,0.78136 -0.7925,0.78136zM15.19375,20.75696h-10.9837c-0.43774,0 -0.79262,-0.34964 -0.79262,-0.78136c0,-0.43117 0.35488,-0.78081 0.79262,-0.78081h10.9837c0.43762,0 0.7925,0.34964 0.7925,0.78081c0,0.43172 -0.35488,0.78136 -0.7925,0.78136z"/>
</svg>