<svg xmlns="http://www.w3.org/2000/svg" xmlns:xlink="http://www.w3.org/1999/xlink" x="0px" y="0px"
	 viewBox="0 0 201.3 53.8" width="201" height="53" style="enable-background:new 0 0 201.3 53.8;" xml:space="preserve">
	<path fill="currentColor" d="M6.3,48.2c0,0.9-0.3,1.6-0.8,2.1s-1.1,0.7-2,0.7c-0.9,0-1.5-0.3-2-1s-0.8-1.5-0.8-2.6v-1.5c0-1.1,0.3-2,0.8-2.6
		s1.2-1,2.1-1c0.8,0,1.5,0.2,1.9,0.7s0.7,1.2,0.7,2.1H5.2c0-0.7-0.2-1.2-0.4-1.5s-0.6-0.4-1.1-0.4c-0.6,0-1,0.2-1.3,0.7
		s-0.5,1.1-0.5,2v1.6c0,0.9,0.1,1.5,0.4,2s0.7,0.7,1.3,0.7s1-0.1,1.2-0.4s0.4-0.8,0.5-1.5H6.3z"/>
	<path fill="currentColor" d="M11,44.6h1v6.3h-1v-4.6l-2.3,4.6h-1v-6.3h1v4.6L11,44.6z"/>
	<path fill="currentColor" d="M15.9,50.2c0.3,0,0.6-0.1,0.8-0.3s0.3-0.5,0.3-0.9h1c0,0.6-0.2,1.1-0.6,1.5s-0.9,0.6-1.5,0.6c-0.8,0-1.4-0.2-1.8-0.7
		s-0.6-1.2-0.6-2.2v-0.7c0-1,0.2-1.7,0.6-2.2s1-0.7,1.8-0.7c0.6,0,1.2,0.2,1.5,0.6s0.6,1,0.6,1.7h-1c0-0.5-0.1-0.8-0.3-1.1
		s-0.5-0.4-0.8-0.4c-0.5,0-0.8,0.2-1,0.5s-0.3,0.8-0.3,1.5v0.8c0,0.7,0.1,1.3,0.3,1.6S15.4,50.2,15.9,50.2z"/>
	<path fill="currentColor" d="M23.2,45.5h-1.7v5.5h-1v-5.5h-1.7v-0.9h4.5V45.5z"/>
	<path fill="currentColor" d="M26.2,51.1c-0.8,0-1.4-0.2-1.8-0.7s-0.6-1.2-0.6-2.1v-0.8c0-0.9,0.2-1.7,0.6-2.2s1-0.8,1.7-0.8c0.7,0,1.3,0.2,1.7,0.7
		s0.6,1.2,0.6,2.2v0.7h-3.5v0.1c0,0.7,0.1,1.2,0.4,1.5s0.6,0.5,1.1,0.5c0.3,0,0.6-0.1,0.8-0.2s0.5-0.3,0.7-0.5l0.5,0.7
		C27.8,50.7,27.1,51.1,26.2,51.1z M26.1,45.4c-0.4,0-0.7,0.1-1,0.4s-0.3,0.8-0.4,1.4h2.5V47c0-0.6-0.1-1-0.3-1.3
		S26.5,45.4,26.1,45.4z"/>
	<path fill="currentColor" d="M32.7,49.5l1.7-4.9h1.3v6.3h-1v-4.4L33,50.9h-0.7l-1.6-4.5v4.5h-1v-6.3H31L32.7,49.5z"/>
	<path fill="currentColor" d="M38.4,46.8h1.3c0.6,0,1.1,0.2,1.4,0.6s0.5,0.9,0.5,1.5s-0.2,1.1-0.5,1.5s-0.8,0.6-1.4,0.6h-2.3v-6.3h1V46.8z M38.4,47.7
		v2.4h1.3c0.3,0,0.5-0.1,0.7-0.3s0.3-0.5,0.3-0.9c0-0.4-0.1-0.7-0.3-0.9s-0.4-0.3-0.7-0.3H38.4z M43.7,50.9h-1v-6.3h1V50.9z"/>
	<path fill="currentColor" d="M50.8,47.2l1.5-4.8h1.2l-2.5,7.1c-0.2,0.5-0.3,0.8-0.5,1s-0.3,0.3-0.5,0.4s-0.4,0.2-0.8,0.2c-0.3,0-0.4,0-0.5-0.1l0-0.9
		l0.5,0c0.3,0,0.5-0.2,0.7-0.6l0.3-0.8L48,42.4h1.2L50.8,47.2z"/>
	<path fill="currentColor" d="M58.8,50.9h-1v-5.4h-2.3v5.4h-1v-6.3h4.4V50.9z"/>
	<path fill="currentColor" d="M65,48.1c0,1-0.2,1.8-0.5,2.2s-0.9,0.7-1.5,0.7c-0.6,0-1.1-0.2-1.5-0.7v3h-1v-8.8h0.9l0.1,0.7c0.3-0.5,0.8-0.8,1.5-0.8
		c0.7,0,1.2,0.2,1.6,0.7s0.5,1.2,0.5,2.2V48.1z M64,47.5c0-0.7-0.1-1.2-0.3-1.6s-0.6-0.5-1.1-0.5c-0.5,0-0.9,0.2-1.1,0.7v3.3
		c0.3,0.5,0.6,0.7,1.1,0.7c0.5,0,0.8-0.2,1-0.5s0.3-0.9,0.3-1.5V47.5z"/>
	<path fill="currentColor" d="M69.6,50.9c-0.1-0.1-0.1-0.4-0.1-0.7c-0.4,0.5-0.8,0.8-1.4,0.8c-0.6,0-1-0.2-1.3-0.5s-0.5-0.8-0.5-1.4
		c0-0.6,0.2-1.2,0.7-1.5s1-0.6,1.8-0.6h0.8v-0.7c0-0.4-0.1-0.6-0.3-0.8s-0.4-0.2-0.8-0.2c-0.3,0-0.6,0.1-0.8,0.3s-0.3,0.4-0.3,0.7
		h-1c0-0.3,0.1-0.6,0.3-0.9s0.4-0.5,0.8-0.7s0.7-0.3,1.1-0.3c0.6,0,1.1,0.2,1.5,0.5s0.5,0.8,0.5,1.4v3.2c0,0.5,0.1,0.9,0.2,1.3v0.1
		H69.6z M68.2,50.1c0.3,0,0.5-0.1,0.7-0.2s0.4-0.3,0.5-0.5v-1.5h-0.6c-0.5,0-0.9,0.1-1.2,0.3s-0.4,0.5-0.4,0.9
		c0,0.4,0.1,0.6,0.2,0.8S67.9,50.1,68.2,50.1z"/>
	<path fill="currentColor" d="M72.2,50.9v-6.3h2.1c0.7,0,1.3,0.1,1.7,0.4s0.6,0.7,0.6,1.3c0,0.3-0.1,0.6-0.2,0.8s-0.4,0.4-0.7,0.5
		c0.3,0.1,0.6,0.3,0.8,0.5s0.3,0.6,0.3,0.9c0,0.6-0.2,1-0.5,1.3s-0.9,0.5-1.5,0.5H72.2z M73.2,47.3h1.1c0.8,0,1.2-0.3,1.2-0.9
		c0-0.6-0.4-0.9-1.1-0.9h-1.2V47.3z M73.2,48.2v1.9h1.4c0.7,0,1-0.3,1-1c0-0.6-0.4-0.9-1.1-0.9H73.2z"/>
	<path fill="currentColor" d="M82.6,44.6v6.3h-1v-5.4h-1.7l-0.1,2.2c-0.1,1.2-0.2,2-0.5,2.5s-0.7,0.8-1.3,0.8h-0.3v-1l0.3,0c0.3,0,0.5-0.2,0.6-0.6
		s0.2-1,0.2-2.1l0.1-2.7H82.6z"/>
	<path fill="currentColor" d="M86.5,51.1c-0.8,0-1.4-0.2-1.8-0.7S84,49.2,84,48.3v-0.8c0-0.9,0.2-1.7,0.6-2.2s1-0.8,1.7-0.8c0.7,0,1.3,0.2,1.7,0.7
		s0.6,1.2,0.6,2.2v0.7h-3.5v0.1c0,0.7,0.1,1.2,0.4,1.5s0.6,0.5,1.1,0.5c0.3,0,0.6-0.1,0.8-0.2s0.5-0.3,0.7-0.5l0.5,0.7
		C88.1,50.7,87.4,51.1,86.5,51.1z M86.4,45.4c-0.4,0-0.7,0.1-1,0.4s-0.3,0.8-0.4,1.4h2.5V47c0-0.6-0.1-1-0.3-1.3
		S86.8,45.4,86.4,45.4z"/>
	<path fill="currentColor" d="M94.3,50.9h-1v-2.7H91v2.7h-1v-6.3h1v2.7h2.3v-2.7h1V50.9z"/>
	<path fill="currentColor" d="M99.4,44.6h1v6.3h-1v-4.6l-2.3,4.6h-1v-6.3h1v4.6L99.4,44.6z"/>
	<path fill="currentColor" d="M106.2,44.6v6.3h-1v-2.5H104l-1.3,2.5h-1.1l1.4-2.6c-0.3-0.1-0.6-0.4-0.8-0.7s-0.3-0.7-0.3-1.1c0-0.6,0.2-1,0.6-1.4
		s0.9-0.5,1.5-0.5H106.2z M102.9,46.5c0,0.3,0.1,0.6,0.3,0.8s0.4,0.3,0.7,0.3h1.3v-2.1h-1.2c-0.3,0-0.6,0.1-0.7,0.3
		S102.9,46.2,102.9,46.5z"/>
	<path fill="currentColor" d="M111.8,48.2c0.1,0.7,0.3,1.2,0.5,1.5s0.6,0.4,1.1,0.4c0.5,0,1-0.3,1.3-0.8c0.3-0.5,0.5-1.3,0.5-2.2h-2.8v-0.9h2.8
		c0-0.9-0.2-1.7-0.5-2.2s-0.8-0.8-1.4-0.8c-0.5,0-0.8,0.1-1.1,0.4c-0.3,0.3-0.4,0.8-0.5,1.5h-1.1c0.1-0.9,0.4-1.6,0.8-2.1
		s1.1-0.7,1.8-0.7c0.9,0,1.6,0.4,2.1,1.1s0.8,1.7,0.8,2.9v0.8c0,0.8-0.1,1.5-0.3,2.1s-0.6,1.1-1,1.4s-0.9,0.5-1.5,0.5
		c-0.8,0-1.4-0.2-1.9-0.7s-0.8-1.2-0.8-2.1H111.8z"/>
	<path fill="currentColor" d="M122.1,50.9h-1v-2.7h-2.3v2.7h-1v-6.3h1v2.7h2.3v-2.7h1V50.9z"/>
	<path fill="currentColor" d="M126.1,51.1c-0.8,0-1.4-0.2-1.8-0.7s-0.6-1.2-0.6-2.1v-0.8c0-0.9,0.2-1.7,0.6-2.2s1-0.8,1.7-0.8c0.7,0,1.3,0.2,1.7,0.7
		s0.6,1.2,0.6,2.2v0.7h-3.5v0.1c0,0.7,0.1,1.2,0.4,1.5s0.6,0.5,1.1,0.5c0.3,0,0.6-0.1,0.8-0.2s0.5-0.3,0.7-0.5l0.5,0.7
		C127.7,50.7,127,51.1,126.1,51.1z M125.9,45.4c-0.4,0-0.7,0.1-1,0.4s-0.3,0.8-0.4,1.4h2.5V47c0-0.6-0.1-1-0.3-1.3
		S126.3,45.4,125.9,45.4z"/>
	<path fill="currentColor" d="M134,48.1c0,1-0.2,1.8-0.5,2.2s-0.9,0.7-1.5,0.7c-0.6,0-1.1-0.2-1.5-0.7v3h-1v-8.8h0.9l0.1,0.7c0.3-0.5,0.8-0.8,1.5-0.8
		c0.7,0,1.2,0.2,1.6,0.7s0.5,1.2,0.5,2.2V48.1z M133,47.5c0-0.7-0.1-1.2-0.3-1.6s-0.6-0.5-1.1-0.5c-0.5,0-0.9,0.2-1.1,0.7v3.3
		c0.3,0.5,0.6,0.7,1.1,0.7c0.5,0,0.8-0.2,1-0.5s0.3-0.9,0.3-1.5V47.5z"/>
	<path fill="currentColor" d="M138.8,45.5h-2.4v5.4h-1v-6.3h3.4V45.5z"/>
	<path fill="currentColor" d="M139.4,47.5c0-0.9,0.2-1.7,0.7-2.2s1-0.8,1.8-0.8s1.3,0.3,1.8,0.8s0.7,1.2,0.7,2.1v0.7c0,0.9-0.2,1.6-0.7,2.2
		s-1,0.8-1.8,0.8c-0.7,0-1.3-0.3-1.8-0.8s-0.7-1.2-0.7-2.1V47.5z M140.5,48.1c0,0.7,0.1,1.2,0.4,1.5s0.6,0.6,1,0.6
		c0.9,0,1.4-0.7,1.4-2v-0.7c0-0.6-0.1-1.2-0.4-1.5s-0.6-0.6-1-0.6c-0.4,0-0.8,0.2-1,0.6s-0.4,0.9-0.4,1.5V48.1z"/>
	<path fill="currentColor" d="M149.7,47.6v3.3h-1.1v-8.5h2.7c0.8,0,1.4,0.2,1.9,0.7s0.7,1.1,0.7,1.9c0,0.8-0.2,1.5-0.6,1.9s-1,0.7-1.8,0.7H149.7z
		 M149.7,46.7h1.6c0.5,0,0.8-0.1,1.1-0.4c0.3-0.3,0.4-0.7,0.4-1.2c0-0.5-0.1-0.9-0.4-1.2c-0.3-0.3-0.6-0.5-1.1-0.5h-1.7V46.7z"/>
	<path fill="currentColor" d="M157.3,51.1c-0.8,0-1.4-0.2-1.8-0.7s-0.6-1.2-0.6-2.1v-0.8c0-0.9,0.2-1.7,0.6-2.2s1-0.8,1.7-0.8c0.7,0,1.3,0.2,1.7,0.7
		s0.6,1.2,0.6,2.2v0.7h-3.5v0.1c0,0.7,0.1,1.2,0.4,1.5s0.6,0.5,1.1,0.5c0.3,0,0.6-0.1,0.8-0.2s0.5-0.3,0.7-0.5l0.5,0.7
		C158.9,50.7,158.2,51.1,157.3,51.1z M157.2,45.4c-0.4,0-0.7,0.1-1,0.4s-0.3,0.8-0.4,1.4h2.5V47c0-0.6-0.1-1-0.3-1.3
		S157.5,45.4,157.2,45.4z"/>
	<path fill="currentColor" d="M162.8,50.2c0.3,0,0.6-0.1,0.8-0.3s0.3-0.5,0.3-0.9h1c0,0.6-0.2,1.1-0.6,1.5s-0.9,0.6-1.5,0.6c-0.8,0-1.4-0.2-1.8-0.7
		s-0.6-1.2-0.6-2.2v-0.7c0-1,0.2-1.7,0.6-2.2s1-0.7,1.8-0.7c0.6,0,1.2,0.2,1.5,0.6s0.6,1,0.6,1.7h-1c0-0.5-0.1-0.8-0.3-1.1
		s-0.5-0.4-0.8-0.4c-0.5,0-0.8,0.2-1,0.5s-0.3,0.8-0.3,1.5v0.8c0,0.7,0.1,1.3,0.3,1.6S162.4,50.2,162.8,50.2z"/>
	<path fill="currentColor" d="M167.9,49.2l1.2-4.6h1.1l-2.1,7.2c-0.2,0.5-0.4,1-0.7,1.2s-0.6,0.4-1,0.4c-0.1,0-0.3,0-0.5-0.1v-0.9l0.2,0
		c0.3,0,0.5-0.1,0.7-0.2s0.3-0.4,0.4-0.7l0.2-0.7l-1.9-6.3h1.1L167.9,49.2z"/>
	<path fill="currentColor" d="M175.8,48.1c0,1-0.2,1.8-0.5,2.2s-0.9,0.7-1.5,0.7c-0.6,0-1.1-0.2-1.5-0.7v3h-1v-8.8h0.9l0.1,0.7c0.3-0.5,0.8-0.8,1.5-0.8
		c0.7,0,1.2,0.2,1.6,0.7s0.5,1.2,0.5,2.2V48.1z M174.7,47.5c0-0.7-0.1-1.2-0.3-1.6s-0.6-0.5-1.1-0.5c-0.5,0-0.9,0.2-1.1,0.7v3.3
		c0.3,0.5,0.6,0.7,1.1,0.7c0.5,0,0.8-0.2,1-0.5s0.3-0.9,0.3-1.5V47.5z"/>
	<path fill="currentColor" d="M179.3,50.2c0.3,0,0.6-0.1,0.8-0.3s0.3-0.5,0.3-0.9h1c0,0.6-0.2,1.1-0.6,1.5s-0.9,0.6-1.5,0.6c-0.8,0-1.4-0.2-1.8-0.7
		s-0.6-1.2-0.6-2.2v-0.7c0-1,0.2-1.7,0.6-2.2s1-0.7,1.8-0.7c0.6,0,1.2,0.2,1.5,0.6s0.6,1,0.6,1.7h-1c0-0.5-0.1-0.8-0.3-1.1
		s-0.5-0.4-0.8-0.4c-0.5,0-0.8,0.2-1,0.5s-0.3,0.8-0.3,1.5v0.8c0,0.7,0.1,1.3,0.3,1.6S178.8,50.2,179.3,50.2z"/>
	<path fill="currentColor" d="M185.9,50.9c-0.1-0.1-0.1-0.4-0.1-0.7c-0.4,0.5-0.8,0.8-1.4,0.8c-0.6,0-1-0.2-1.3-0.5s-0.5-0.8-0.5-1.4
		c0-0.6,0.2-1.2,0.7-1.5s1-0.6,1.8-0.6h0.8v-0.7c0-0.4-0.1-0.6-0.3-0.8s-0.4-0.2-0.8-0.2c-0.3,0-0.6,0.1-0.8,0.3s-0.3,0.4-0.3,0.7
		h-1c0-0.3,0.1-0.6,0.3-0.9s0.4-0.5,0.8-0.7s0.7-0.3,1.1-0.3c0.6,0,1.1,0.2,1.5,0.5s0.5,0.8,0.5,1.4v3.2c0,0.5,0.1,0.9,0.2,1.3v0.1
		H185.9z M184.5,50.1c0.3,0,0.5-0.1,0.7-0.2s0.4-0.3,0.5-0.5v-1.5h-0.6c-0.5,0-0.9,0.1-1.2,0.3s-0.4,0.5-0.4,0.9
		c0,0.4,0.1,0.6,0.2,0.8S184.2,50.1,184.5,50.1z"/>
	<path fill="currentColor" d="M191.5,49.5l1.7-4.9h1.3v6.3h-1v-4.4l-1.6,4.4h-0.7l-1.6-4.5v4.5h-1v-6.3h1.3L191.5,49.5z"/>
	<path fill="currentColor" d="M199.6,44.6h1v6.3h-1v-4.6l-2.3,4.6h-1v-6.3h1v4.6L199.6,44.6z"/>
<path d="M161.9,8.8h22l4.6,4.6v0.3l-4.6,4.6h-22V8.8z M189.3,0h-37.7v32.6h10.4v-5.3h27.4l7.9-7.9V8L189.3,0z M0,23
	l9.5,9.5h31.8l4.7-4.7v-7.6h-8.5l-3.2,3.2H15.9l-7-7v-0.3l7.2-7.2h18.2l3,3H46V4.7L41.3,0H9.5L0,9.5V23z M100.3,4.7L105,0h31.8
	l8.7,8.7v15.3l-8.7,8.7H105l-4.7-4.7v-7.6h7.4l3.4,3.4h21.1l3.1-3.1v-0.6h-22.2v-7.8h22.2v-0.3L132,8.8h-21l-2.7,2.7h-8V4.7z
	 M57.5,32.6v-9.2h21l1.3-3.5H57.5L49.9,6.8V0h8.7L65,11h18.2l4.1-11h9v7.1l-7.8,20.8l-4.7,4.7H57.5z"/>
</svg>
