<svg xmlns="http://www.w3.org/2000/svg" version="1.1" viewBox="0 0 11 15">
    <path d="M10.99964,5.41876c0,3.71036 -4.92199,9.15526 -5.13142,9.38617c-0.1965,0.21504 -0.54016,0.21559 -0.737,0c-0.20954,-0.23091 -5.13153,-5.6758 -5.13153,-9.38617c0,-2.98919 2.46723,-5.42082 5.50003,-5.42082c3.03268,0 5.49992,2.43163 5.49992,5.42082zM10.00927,5.41876c0,-2.45078 -2.02297,-4.44467 -4.50954,-4.44467c-2.48657,0 -4.50954,1.99389 -4.50954,4.44467c0,2.54653 2.85301,6.37235 4.50954,8.31207c1.65688,-1.93972 4.50943,-5.76554 4.50954,-8.31207zM8.26679,5.41876c0,1.50417 -1.24123,2.7271 -2.76707,2.7271c-1.52584,0 -2.76718,-1.22293 -2.76718,-2.7271c0,-1.50417 1.24134,-2.72765 2.76718,-2.72765c1.52584,0 2.76707,1.22347 2.76707,2.72765zM7.27642,5.41876c0,-0.96521 -0.79708,-1.7504 -1.7767,-1.7504c-0.97973,0 -1.7767,0.78519 -1.7767,1.7504c0,0.96576 0.79697,1.75204 1.7767,1.75204c0.97961,0 1.7767,-0.78628 1.7767,-1.75204z"/>
</svg>