<svg xmlns="http://www.w3.org/2000/svg" viewBox="0 0 14 14">
    <path d="M12.925,6.751 C12.683,5.338 12.016,4.054 10.999,3.036 C9.927,1.967 8.570,1.288 7.072,1.079 L7.224,-0.002 C8.957,0.240 10.527,1.023 11.768,2.264 C12.945,3.444 13.717,4.930 14.000,6.567 L12.925,6.751 ZM9.819,4.161 C10.527,4.872 10.993,5.766 11.162,6.754 L10.087,6.938 C9.956,6.174 9.598,5.480 9.050,4.933 C8.470,4.353 7.736,3.990 6.929,3.875 L7.081,2.795 C8.124,2.940 9.071,3.412 9.819,4.161 ZM4.570,7.634 C5.315,8.549 6.157,9.361 7.162,9.993 C7.378,10.127 7.617,10.226 7.841,10.348 C7.955,10.413 8.034,10.392 8.127,10.296 C8.468,9.947 8.814,9.602 9.161,9.259 C9.615,8.807 10.186,8.807 10.644,9.259 C11.200,9.813 11.757,10.366 12.310,10.923 C12.773,11.388 12.770,11.960 12.304,12.431 C11.990,12.749 11.655,13.052 11.357,13.384 C10.924,13.871 10.382,14.028 9.758,13.993 C8.852,13.944 8.019,13.644 7.215,13.253 C5.429,12.385 3.903,11.182 2.624,9.661 C1.677,8.536 0.896,7.310 0.383,5.929 C0.133,5.262 -0.045,4.578 0.010,3.852 C0.045,3.406 0.211,3.024 0.541,2.713 C0.896,2.376 1.231,2.022 1.581,1.679 C2.035,1.230 2.606,1.230 3.063,1.676 C3.346,1.953 3.623,2.235 3.903,2.515 C4.173,2.788 4.444,3.057 4.715,3.330 C5.193,3.811 5.193,4.371 4.718,4.848 C4.377,5.192 4.039,5.536 3.693,5.871 C3.602,5.961 3.594,6.034 3.640,6.145 C3.870,6.692 4.200,7.178 4.570,7.634 Z"/>
</svg>