<svg xmlns="http://www.w3.org/2000/svg" version="1.1" viewBox="0 0 14 14">
    <path d="M12.69451,10.29793c0.29881,0.29657 0.45559,0.64785 0.45559,1.01336c0,0.36332 -0.15381,0.71844 -0.44666,1.02266c-0.12737,0.13242 -0.25749,0.25991 -0.38475,0.38138c-0.18654,0.17947 -0.36404,0.34855 -0.51785,0.53513c-0.00298,0.00492 -0.00893,0.00821 -0.0119,0.01477c-0.44975,0.48698 -1.02379,0.73266 -1.70746,0.73266c-0.05905,0 -0.12428,-0.00328 -0.18631,-0.00602c-1.01498,-0.06566 -1.92352,-0.44594 -2.6041,-0.76877c-1.78139,-0.86015 -3.34099,-2.08034 -4.63703,-3.62501c-1.06819,-1.28257 -1.78425,-2.47923 -2.26376,-3.77001c-0.19524,-0.52638 -0.44975,-1.33017 -0.3788,-2.19251c0.04738,-0.53459 0.26344,-0.9964 0.64224,-1.37395l1.00605,-1.01445c0.00309,-0.00274 0.00309,-0.00274 0.00595,-0.00602c0.29583,-0.28289 0.6451,-0.43336 1.00616,-0.43336c0.36095,0 0.70415,0.15047 0.99117,0.43336c0.19238,0.17783 0.37891,0.3677 0.55641,0.54991c0.08869,0.09521 0.18345,0.18932 0.27512,0.28015l0.80795,0.80708c0.6213,0.62104 0.6213,1.42429 0,2.04532c-0.08286,0.08317 -0.16582,0.16853 -0.24868,0.25115c-0.21893,0.22106 -0.4438,0.45196 -0.68642,0.67357c0.18047,0.39834 0.42904,0.79176 0.79891,1.25849c0.76344,0.9373 1.55949,1.66066 2.43542,2.21659c0.08583,0.05308 0.18631,0.10396 0.29297,0.15594c0.07393,0.03885 0.15083,0.0777 0.22785,0.11874l0.9351,-0.93074c0.29881,-0.29821 0.64808,-0.4547 1.012,-0.4547c0.3669,0 0.7132,0.15868 1.00021,0.45798zM12.12631,10.85659l-1.63044,-1.62783c-0.00298,-0.00274 -0.00298,-0.00274 -0.00595,-0.00602c-0.09178,-0.10068 -0.24261,-0.21613 -0.42618,-0.21613c-0.18642,0 -0.34618,0.12147 -0.44678,0.22215l-1.01212,1.01062c-0.05013,0.04979 -0.20405,0.20464 -0.44975,0.20464c-0.09762,0 -0.19226,-0.02462 -0.29297,-0.07442c-0.01179,-0.00657 -0.02357,-0.01532 -0.03548,-0.02079c-0.08583,-0.05417 -0.18642,-0.10396 -0.29297,-0.15704c-0.11833,-0.05909 -0.24261,-0.12147 -0.36392,-0.19753c-0.94986,-0.60025 -1.81103,-1.3827 -2.62779,-2.38731l-0.00298,-0.00328c-0.44975,-0.5707 -0.7457,-1.04838 -0.95581,-1.55725c-0.00286,-0.00875 -0.00584,-0.01806 -0.00881,-0.02681c-0.05322,-0.16853 -0.10059,-0.4164 0.15392,-0.67083c0.00298,-0.00547 0.00881,-0.00821 0.01476,-0.01477c0.25749,-0.23036 0.49416,-0.46619 0.74272,-0.72117c0.08583,-0.08208 0.16869,-0.16798 0.25452,-0.25389c0.31357,-0.31243 0.31357,-0.60243 0,-0.91542l-0.80784,-0.80762c-0.09464,-0.09685 -0.1894,-0.19151 -0.28107,-0.28562c-0.18059,-0.18659 -0.35225,-0.36059 -0.53284,-0.52911c-0.00286,-0.00274 -0.00584,-0.00602 -0.00881,-0.00875c-0.09464,-0.09466 -0.24559,-0.20738 -0.43201,-0.20738c-0.15095,0 -0.30476,0.07387 -0.44975,0.21011l-1.00914,1.00734c-0.24559,0.24568 -0.37868,0.5313 -0.40833,0.87821c-0.0444,0.54006 0.05619,1.11349 0.33142,1.84944c0.44689,1.20596 1.12152,2.32821 2.13055,3.54293c1.22211,1.45712 2.69291,2.60563 4.36775,3.41544c0.61249,0.29219 1.42925,0.63472 2.30816,0.69108c0.0444,0.00328 0.09167,0.00328 0.13607,0.00328c0.46165,0 0.81379,-0.15047 1.11271,-0.46947c0.18345,-0.21668 0.3788,-0.40709 0.57106,-0.59149c0.12726,-0.12421 0.24559,-0.23638 0.36106,-0.36059c-0.00298,0.00274 -0.00298,0 0,0c0.3019,-0.31353 0.3019,-0.62268 -0.00298,-0.92472zM7.24369,2.86735c0.03857,-0.21559 0.24261,-0.36113 0.46165,-0.32557c0.93807,0.15977 1.79329,0.60298 2.47089,1.27983c0.67772,0.6763 1.12152,1.52989 1.28128,2.46719c0.03548,0.21832 -0.10952,0.4257 -0.32845,0.46017c-0.02369,0.00328 -0.0444,0.00711 -0.06809,0.00711c-0.19226,0 -0.36095,-0.13679 -0.39356,-0.33104c-0.13309,-0.77479 -0.49702,-1.47791 -1.05938,-2.03985c-0.56225,-0.56085 -1.26652,-0.92745 -2.04174,-1.05713c-0.21904,-0.03611 -0.36106,-0.24568 -0.32261,-0.46072zM13.66806,6.62806c-0.02369,0.00274 -0.0444,0.00602 -0.06809,0.00602c-0.19238,0 -0.36095,-0.13625 -0.39356,-0.33104c-0.2338,-1.37668 -0.88474,-2.63244 -1.88496,-3.63102c-1.00033,-0.99585 -2.2578,-1.64917 -3.63682,-1.88281c-0.21893,-0.03721 -0.36392,-0.2413 -0.32845,-0.46017c0.03845,-0.21559 0.24273,-0.36332 0.45868,-0.32502c1.54461,0.26319 2.95029,0.98983 4.06883,2.10661c1.11843,1.11732 1.8465,2.52027 2.10983,4.06274c0.03845,0.21559 -0.10952,0.42242 -0.32547,0.4547z"/>
</svg>