<svg viewBox="0 0 90 90" xmlns="http://www.w3.org/2000/svg">
    <path d="M79 0H11C4.9 0 0 4.6 0 10.3V62C0 67.7 4.9 72.3 11 72.3H18.2V87.6C18.2 88.5 18.8 89.4 19.7 89.8C20.1 90 20.4 90 20.8 90C21.4 90 22 89.8 22.5 89.5L45.2 72.3H79C85.1 72.3 90 67.7 90 62V10.3C90 4.6 85.1 0 79 0ZM84.9 61.9C84.9 64.9 82.3 67.3 79.1 67.3H44.2C43.6 67.3 43 67.5 42.5 67.8L23.4 82.3V69.7C23.4 68.4 22.2 67.3 20.8 67.3H11C7.8 67.3 5.2 64.9 5.2 61.9V10.5C5.2 7.5 7.8 5.1 11 5.1H79.2C82.4 5.1 85 7.5 85 10.5V61.9H84.9Z"/>
    <path d="M41.5 48.1C41.4 47.6 41.3 46.7 41.3 45.4V43.4C41.3 41.4 41 39.8 40.5 38.8C39.9 37.8 39 37 37.6 36.5C39.2 35.9 40.4 35 41.1 33.7C41.8 32.4 42.1 31 42.1 29.6C42.1 28.5 41.9 27.4 41.6 26.5C41.3 25.6 40.8 24.8 40.1 24C39.4 23.1 38.4 22.4 37.4 22C36.3 21.5 34.8 21.3 32.8 21.2H18.8V50.4H24.8V39H30.8C32.5 39 33.7 39.3 34.3 39.9C34.9 40.5 35.2 41.8 35.3 43.6V46.3C35.3 47.2 35.4 48 35.6 48.8C35.7 49.2 35.8 49.7 36 50.4H42.7V49.7C42.1 49.4 41.7 48.8 41.5 48.1ZM34.3 33.7C33.6 34 32.7 34.2 31.4 34.2H24.8V26.4H31.5C32.8 26.4 33.7 26.6 34.3 26.9C35.4 27.5 36 28.7 36 30.5C36 32.1 35.5 33.2 34.3 33.7Z"/>
    <path d="M65.2 39.2C65.2 41.2 65 42.7 64.5 43.6C63.8 45.2 62.2 46.1 59.7 46.1C57.2 46.1 55.6 45.3 54.9 43.6C54.4 42.7 54.2 41.2 54.2 39.2V21.3H48V39.2C48 42.3 48.5 44.7 49.4 46.4C51.2 49.6 54.6 51.2 59.7 51.2C64.7 51.2 68.2 49.6 70 46.4C71 44.7 71.4 42.3 71.4 39.2V21.3H65.2V39.2Z"/>
</svg>