<svg xmlns="http://www.w3.org/2000/svg" version="1.1" viewBox="0 0 25 25">
    <path d="M9.34927,18.76854c-2.50237,0 -4.85516,-0.97561 -6.62441,-2.74899c-3.65101,-3.65948 -3.65101,-9.61215 0,-13.27108c1.76926,-1.77393 4.12205,-2.74953 6.62441,-2.74953c2.50248,0 4.85516,0.97561 6.62453,2.74953c3.45598,3.46304 3.641,8.9808 0.55507,12.66431l8.23594,8.25348c0.30487,0.30423 0.30407,0.79942 -0.0016,1.10419c-0.15221,0.15266 -0.35225,0.22817 -0.55183,0.22817c-0.20039,0 -0.40066,-0.0766 -0.55332,-0.22981l-8.22823,-8.2447c-1.69416,1.45297 -3.82659,2.24443 -6.08055,2.24443zM9.34927,1.56112c-2.08408,0 -4.04377,0.81364 -5.51765,2.29046c-3.0439,3.05048 -3.0439,8.01386 0,11.06488c1.47388,1.47681 3.43357,2.28991 5.51765,2.28991c2.0842,0 4.04388,-0.8131 5.51777,-2.28991c3.04424,-3.05102 3.04424,-8.01441 0,-11.06488c-1.47388,-1.47681 -3.43357,-2.29046 -5.51777,-2.29046z"/>
</svg>