<?xml version="1.0" encoding="iso-8859-1"?>
<!-- Generator: Adobe Illustrator 16.0.0, SVG Export Plug-In . SVG Version: 6.00 Build 0)  -->
<!DOCTYPE svg PUBLIC "-//W3C//DTD SVG 1.1//EN" "http://www.w3.org/Graphics/SVG/1.1/DTD/svg11.dtd">
<svg version="1.1" id="Capa_1" xmlns="http://www.w3.org/2000/svg" xmlns:xlink="http://www.w3.org/1999/xlink" x="0px" y="0px"
	 width="661.621px" height="661.621px" viewBox="0 0 661.621 661.621" style="enable-background:new 0 0 661.621 661.621;"
	 xml:space="preserve">
<g>
	<g id="Ellipse_4_copy_6">
		<g>
			<path d="M90.973,168.449V0H57.892v168.449c-19.22,6.831-33.081,25.009-33.081,46.578s13.861,39.747,33.081,46.578v400.016h33.081
				V261.605c19.237-6.832,33.081-25.009,33.081-46.578S110.209,175.28,90.973,168.449z M355.621,449.638V0H322.54v449.638
				c-19.236,6.831-33.081,25.01-33.081,46.578c0,21.569,13.861,39.747,33.081,46.578v118.827h33.081V542.794
				c19.237-6.831,33.081-25.009,33.081-46.578C388.702,474.647,374.858,456.469,355.621,449.638z M603.729,284.232V0h-33.081
				v284.232c-19.236,6.831-33.081,25.009-33.081,46.578c0,21.569,13.845,39.747,33.081,46.578v284.232h33.081V377.389
				c19.236-6.831,33.081-25.009,33.081-46.578C636.811,309.242,622.966,291.063,603.729,284.232z"/>
		</g>
	</g>
</g>
<g>
</g>
<g>
</g>
<g>
</g>
<g>
</g>
<g>
</g>
<g>
</g>
<g>
</g>
<g>
</g>
<g>
</g>
<g>
</g>
<g>
</g>
<g>
</g>
<g>
</g>
<g>
</g>
<g>
</g>
</svg>
