<svg xmlns="http://www.w3.org/2000/svg" width="14" height="10" viewBox="0 0 14 10"><g><g><path fill="#7e7d7d" d="M.074 3.5A.223.223 0 0 1 0 3.331V1.903c0-.064.025-.12.074-.167a.246.246 0 0 1 .176-.07H11V.237c0-.07.023-.127.07-.171a.249.249 0 0 1 .18-.067.3.3 0 0 1 .188.075l2.492 2.373c.047.045.07.101.07.171s-.023.126-.07.171l-2.5 2.382a.25.25 0 0 1-.18.066.25.25 0 0 1-.176-.07.225.225 0 0 1-.074-.168V3.57H.25a.245.245 0 0 1-.176-.072zm13.852 2.998c.05.048.074.103.074.168v1.428c0 .065-.025.12-.074.168a.249.249 0 0 1-.176.07H3v1.43c0 .063-.025.12-.074.166a.244.244 0 0 1-.176.07.297.297 0 0 1-.187-.074L.07 7.544A.218.218 0 0 1 0 7.38c0-.07.024-.126.07-.171l2.5-2.381a.25.25 0 0 1 .18-.067c.068 0 .126.024.176.07.05.048.074.104.074.168v1.429h10.75c.068 0 .126.023.176.07z"/></g></g></svg>