<svg xmlns="http://www.w3.org/2000/svg" version="1.1" viewBox="0 0 30 18">
    <path d="M28.70018,7.72876h-24.28539v0l5.79483,-5.60631c0.50766,-0.49026 0.50766,-1.28695 0,-1.77721c-0.50766,-0.49191 -1.33072,-0.49191 -1.83769,0l-8.01327,7.75231c-0.50766,0.49081 -0.50766,1.28749 0,1.7783l8.01327,7.75396c0.25383,0.24513 0.5864,0.3677 0.91885,0.3677c0.33257,0 0.66513,-0.12257 0.91885,-0.3677c0.50766,-0.49081 0.50766,-1.28749 0,-1.7783l-5.79483,-5.6074v0h24.28528c0.71766,0 1.29971,-0.56359 1.29971,-1.2574c0,-0.69491 -0.58193,-1.25795 -1.29959,-1.25795z"/>
</svg>