<svg xmlns="http://www.w3.org/2000/svg" viewBox="0 0 30 18">
    <path d="M1.298,7.748 L25.558,7.748 L19.769,2.150 C19.262,1.660 19.262,0.865 19.769,0.375 C20.277,-0.115 21.099,-0.115 21.605,0.375 L29.610,8.115 C30.117,8.605 30.117,9.400 29.610,9.889 L21.605,17.630 C21.352,17.875 21.019,17.998 20.687,17.998 C20.355,17.998 20.023,17.875 19.769,17.630 C19.262,17.140 19.262,16.345 19.769,15.855 L25.558,10.258 L1.298,10.258 C0.581,10.258 -0.000,9.696 -0.000,9.003 C-0.000,8.310 0.581,7.748 1.298,7.748 Z"/>
</svg>