<svg xmlns="http://www.w3.org/2000/svg" version="1.1" viewBox="0 0 46 47">
    <path d="M45.99998,12.08545v22.79568c0,0.23911 -0.14431,0.47932 -0.38498,0.62213l-22.27833,11.34941c0,0.0487 -0.04818,0.0487 -0.04818,0.0487c0,0.0476 -0.04807,0.0476 -0.04807,0.0476c-0.09624,0.04815 -0.14431,0.04815 -0.24067,0.04815c-0.09613,0 -0.1442,0 -0.24055,-0.04815c0,-0.0476 -0.04807,-0.0476 -0.04807,-0.0476c0,-0.0487 -0.04818,-0.0487 -0.04818,-0.0487l-22.27833,-11.34941c-0.24055,-0.14281 -0.38486,-0.38302 -0.38486,-0.62213v-22.84273c0.04807,-0.09575 0.04807,-0.14336 0.09624,-0.23966c0.04807,-0.14336 0.19238,-0.28672 0.3368,-0.33432l11.06701,-5.69878l11.21132,-5.69824c0.19249,-0.09685 0.43304,-0.09685 0.62553,0l11.16325,5.69824l11.01883,5.69878c0.14442,0.0476 0.24055,0.09575 0.28873,0.19096c0.09624,0.0963 0.09624,0.14336 0.14442,0.23966c0.04807,0.0476 0.04807,0.09521 0.04807,0.19042zM16.16718,4.95144l20.78671,10.63043l6.8327,-3.49642l-9.96037,-5.07555l-10.82645,-5.55433zM32.09403,19.60412v2.77799l1.82854,-2.24997c0.19238,-0.24076 0.52917,-0.33542 0.81791,-0.1926l1.29913,0.57562v-2.9695l-1.58787,0.81419l-2.40578,1.24427zM10.58555,7.82463l20.78671,10.63098l4.04182,-2.10715l-20.78659,-10.58283l-2.45407,1.24427zM22.32616,23.91473l-10.77827,-5.50727l-10.15274,-5.17131v21.21381l20.93102,10.72728zM29.83257,19.2211l-20.78682,-10.63098l-6.83258,3.49533l9.96025,5.0772l10.82634,5.55488zM44.6046,13.23615l-7.16949,3.63868v4.69363c0,0.09575 0,0.19096 -0.04818,0.23911c-0.14431,0.38302 -0.57735,0.52638 -0.91415,0.38302l-1.82854,-0.76604l-2.69451,3.30436c-0.14442,0.19206 -0.33691,0.28726 -0.57747,0.28726c-0.38486,0 -0.6736,-0.28726 -0.6736,-0.67083v-4.02225l-7.02518,3.59163v21.21435l20.93113,-10.63098z"/>
</svg>