<svg xmlns="http://www.w3.org/2000/svg" version="1.1" viewBox="0 0 44 44">
            <path d="M33.73316,28.59687c0,1.30126 -0.56692,2.47173 -1.46667,3.27779v4.05539c0,0.27085 -0.14889,0.51981 -0.38715,0.6473c-0.1086,0.058 -0.22751,0.08645 -0.34618,0.08645c-0.14225,0 -0.2845,-0.04158 -0.40707,-0.12311l-1.79295,-1.19557l-1.79306,1.19557c-0.2243,0.15047 -0.51476,0.1647 -0.75233,0.03666c-0.23918,-0.12749 -0.38795,-0.37645 -0.38795,-0.6473l0,-4.05539c-0.89976,-0.80606 -1.46667,-1.97654 -1.46667,-3.27779c0,-2.42725 1.97342,-4.39925 4.40002,-4.39925c2.42661,0 4.40002,1.972 4.40002,4.39925zM29.33314,32.99722c-0.51405,0 -1.00775,-0.08852 -1.46667,-0.25113v1.8144l1.05961,-0.70694c0.24651,-0.1647 0.56694,-0.1647 0.81333,0l1.06041,0.70694v-1.8144c-0.45892,0.16261 -0.95263,0.25113 -1.46667,0.25113zM32.26637,28.59687c0,-1.61689 -1.3155,-2.93338 -2.93324,-2.93338c-1.61774,0 -2.93335,1.31649 -2.93335,2.93338c0,1.61798 1.3155,2.93393 2.93335,2.93393c1.61774,0 2.93335,-1.31595 2.93324,-2.93393zM16.86652,7.33054h9.53327v1.46696h-9.53327zM10.26648,11.73089h23.4668v1.46642h-23.4668zM10.26648,16.13068h16.13331v1.46696h-16.13331zM29.33314,16.13068h4.40002v1.46696h-4.40002zM10.26648,20.53048h23.4668v1.46642h-23.4668zM10.26648,24.93028h8.80005v1.46696h-8.80005zM10.26648,28.59687h3.66669v1.46642h-3.66669zM16.86652,28.59687h2.20001v1.46642h-2.20001zM43.99966,3.6645v1.46587c0,0.40491 -0.32776,0.73321 -0.73322,0.73321h-5.13325v34.46683c0,2.02125 -1.64497,3.66659 -3.66669,3.66659h-30.80006c-2.02183,0 -3.66669,-1.64534 -3.66669,-3.66659v-1.46696c0,-0.40545 0.32856,-0.73321 0.73334,-0.73321h5.13336v-34.46573c0,-2.02289 1.64486,-3.66714 3.66669,-3.66714h30.79994c2.02183,0 3.66669,1.64425 3.66657,3.66714zM34.46661,42.53057c1.21296,0 2.20001,-0.9871 2.20001,-2.20017v-35.18152c-0.00015,-0.00615 -0.00023,-0.01232 -0.00023,-0.01851v-1.46587c0,-0.57411 0.1325,-1.11773 0.3685,-1.60191c0.10316,-0.21177 0.22611,-0.41218 0.36644,-0.59881h-27.86819c-1.21284,0 -2.20001,0.9871 -2.20001,2.20072l0,34.46573h24.20013c0.40546,0 0.73322,0.32776 0.73322,0.73321v1.46696c0,1.21308 0.98717,2.20017 2.20001,2.20017zM42.5331,3.6645c0,-1.21359 -0.98699,-2.20066 -2.1999,-2.20072c-0.00004,0 -0.00008,0 -0.00011,0c-1.21279,0.00006 -2.1999,0.98713 -2.1999,2.20072l0,0.73211h4.39991zM3.66644,42.53057h27.86819c-0.46131,-0.61283 -0.73483,-1.37504 -0.73483,-2.20017v-0.73321h-29.33338v0.73321c0,1.21308 0.98717,2.20017 2.20001,2.20017z"/>
</svg>