<svg xmlns="http://www.w3.org/2000/svg" version="1.1" viewBox="0 0 47 34">
    <path d="M46.99965,0.7634v18.43527c0.00011,0.27577 -0.15049,0.53076 -0.39471,0.66755l-4.8484,2.71616c-0.71537,0.39943 -1.62437,0.18877 -2.08145,-0.4826l-0.63068,-0.92745l-1.54461,1.51457c0.20714,0.74853 0.07496,1.54795 -0.36221,2.19361c-0.44117,0.64402 -1.14727,1.0637 -1.93222,1.15234c0.15827,0.92417 -0.18814,1.86147 -0.91358,2.47157c-0.72521,0.6101 -1.72314,0.80379 -2.63054,0.50942c-0.06283,0.80215 -0.49335,1.53208 -1.17039,1.98568c-0.67692,0.45306 -1.52721,0.57945 -2.31125,0.34526c-0.11787,1.17204 -1.00399,2.13178 -2.18239,2.36159c-0.18082,0.03557 -0.36472,0.05308 -0.5492,0.05308c-0.53753,0 -1.06316,-0.1554 -1.51085,-0.44704l-2.89249,-1.89485l-1.22841,0.93074c-0.41325,0.33815 -0.9359,0.52364 -1.47491,0.51981c-0.06569,0 -0.13149,-0.00219 -0.1981,-0.00821c-0.96714,-0.07496 -1.78391,-0.73321 -2.04529,-1.64917c-0.25669,0.09411 -0.5286,0.14226 -0.80257,0.14281c-0.68974,0.00109 -1.34468,-0.29711 -1.79077,-0.812c-0.3281,-0.38357 -0.51773,-0.8607 -0.53959,-1.36027c-0.01179,0 -0.02312,0.00328 -0.0349,0.00328c-0.07736,0 -0.1545,-0.00328 -0.23186,-0.00985c-0.72521,-0.05691 -1.39698,-0.39615 -1.86573,-0.94168l-0.0008,-0.00109c-0.36232,-0.41968 -0.58285,-0.94004 -0.63183,-1.48776c-0.1189,0.0186 -0.23907,0.029 -0.35957,0.03009c-0.0658,0 -0.13149,-0.00219 -0.1981,-0.00875c-0.85464,-0.06785 -1.6016,-0.59204 -1.94527,-1.36136c-0.34332,-0.77151 -0.22785,-1.66395 0.30075,-2.32602l-0.90866,-0.71296c-0.29034,0.26811 -0.67348,0.41749 -1.07197,0.41859c-0.27157,0.00055 -0.53844,-0.06949 -0.77419,-0.20136l-4.8484,-2.71616c-0.2441,-0.13679 -0.39482,-0.39177 -0.39471,-0.66755v-18.43527c-0.00011,-0.29219 0.16903,-0.55921 0.43636,-0.68779c0.26722,-0.12968 0.58617,-0.09959 0.82283,0.07825l12.73373,9.54813c0.56442,0.42625 0.76618,1.17149 0.49164,1.81551h8.00571c0.75348,-0.56523 2.21191,-1.07464 5.02487,-0.54717c0.0547,0.00985 0.10803,0.02626 0.15907,0.04815l2.93221,1.22402l2.00935,-0.53732c-0.40455,-0.66864 -0.23712,-1.5277 0.39036,-2.00319l12.73453,-9.54813c0.23678,-0.17728 0.55584,-0.20792 0.82306,-0.07825c0.26711,0.12859 0.43613,0.39615 0.43613,0.68779zM3.13868,19.63422l7.17339,-10.75847l-8.74557,-6.55784v16.43536zM13.04114,10.92217l-1.48144,-1.1113l-7.0586,10.58611l1.51897,0.85194zM12.28903,23.57549c0.22213,-0.20355 0.30144,-0.51598 0.20222,-0.79832c-0.09933,-0.2807 -0.35854,-0.47823 -0.66113,-0.50394c-0.02151,-0.00109 -0.04292,-0.00219 -0.06432,-0.00219c-0.18105,-0.00055 -0.35637,0.06292 -0.49416,0.17838l-1.959,1.48502c-0.22213,0.20355 -0.30144,0.51598 -0.20199,0.79668c0.09933,0.28125 0.35831,0.47932 0.6609,0.50394c0.20267,0.02025 0.40489,-0.04268 0.55836,-0.17509zM13.68372,27.37504l1.81526,-1.37613l0.6712,-0.51325c0.21309,-0.1937 0.34378,-0.45962 0.3661,-0.74306c0.03937,-0.46619 -0.21069,-0.90721 -0.63332,-1.1217c-0.42286,-0.2123 -0.93475,-0.1554 -1.29753,0.14555l-2.467,1.87242c-0.34893,0.30696 -0.47779,0.78902 -0.32799,1.22402c0.1498,0.43664 0.54966,0.74251 1.01715,0.78081c0.31059,0.02626 0.61901,-0.07059 0.85613,-0.26866zM16.88921,28.78729l1.83243,-1.40185c0.22327,-0.20191 0.30361,-0.51489 0.20473,-0.79668c-0.09888,-0.28289 -0.35831,-0.48096 -0.66147,-0.50613c-0.02151,-0.00164 -0.04314,-0.00274 -0.065,-0.00274c-0.18093,0 -0.3558,0.06347 -0.49335,0.17892l-0.55321,0.42296c-0.00595,0.00492 -0.00996,0.01149 -0.01602,0.01587l-0.54016,0.40928l-1.83117,1.40185c-0.14317,0.12694 -0.2306,0.30313 -0.24399,0.49191c-0.01774,0.19862 0.04681,0.3956 0.1791,0.54826c0.13115,0.15157 0.31872,0.24732 0.52151,0.26374c0.20256,0.01587 0.40352,-0.0476 0.55859,-0.17619l1.04542,-0.80106l0.00172,-0.00109zM20.842,28.61876c-0.27626,-0.30477 -0.75085,-0.3387 -1.06922,-0.07496l-1.92387,1.45766l-0.03582,0.02845c-0.22167,0.20245 -0.30052,0.51434 -0.20107,0.79559c0.09933,0.28125 0.3582,0.47932 0.66067,0.50394c0.2029,0.02079 0.40546,-0.04323 0.55836,-0.17509l1.95911,-1.48557c0.3051,-0.27796 0.32799,-0.7436 0.05184,-1.05002zM35.89808,22.84119c-0.00458,-0.00875 -0.00916,-0.01696 -0.01293,-0.02572c-0.09418,-0.1543 -0.2211,-0.28617 -0.37182,-0.3874l-7.63653,-4.82331c-0.04898,-0.01642 -0.09624,-0.03666 -0.14088,-0.06238l-1.99734,-1.24591c-1.33232,0.59368 -2.80975,0.8027 -4.25869,0.60189c-0.94803,-0.14226 -1.69727,-0.86234 -1.86115,-1.78925c-0.14099,-0.7633 0.13641,-1.54247 0.73116,-2.05517h-6.87572l-5.47783,8.05654l1.21994,0.95645l1.06979,-0.81091c0.59692,-0.4826 1.39881,-0.64238 2.14027,-0.42789c0.74169,0.21504 1.32648,0.77589 1.56086,1.49815c0.83027,-0.48042 1.85852,-0.49574 2.70241,-0.03775c0.84377,0.45798 1.37741,1.31978 1.40247,2.26583c0.10059,-0.00766 0.20142,-0.00821 0.3019,-0.00219c1.21593,0.09357 2.14806,1.09762 2.13009,2.29264c0.80109,0.08426 1.50032,0.5707 1.84708,1.28312c0.34664,0.71296 0.29114,1.55123 -0.14683,2.2144l2.58007,1.6913c0.50949,0.32994 1.19167,0.2227 1.57139,-0.24568c0.37983,-0.46783 0.33131,-1.14359 -0.11181,-1.55615c-0.0626,-0.06347 -0.1292,-0.12257 -0.19924,-0.17838l-1.45226,-1.01008c-0.22831,-0.16032 -0.35259,-0.4257 -0.3265,-0.69874c0.02632,-0.27413 0.19924,-0.5127 0.45364,-0.62706c0.25452,-0.11436 0.55195,-0.08645 0.78003,0.07223l1.41197,0.98217h0.00011l0.00069,0.00055l1.38554,0.96521c0.53936,0.33925 1.25725,0.19096 1.61018,-0.33432c0.35362,-0.54936 0.20496,-1.27545 -0.33794,-1.64972l-0.00137,-0.00055l-3.75996,-2.54489c-0.35545,-0.24185 -0.44426,-0.72008 -0.19867,-1.06808c0.24559,-0.34909 0.73288,-0.43664 1.08902,-0.19698l5.14824,3.48438c0.25658,0.16579 0.57026,0.22434 0.87135,0.1636c0.46474,-0.09083 0.82787,-0.44649 0.91976,-0.90283c0.09178,-0.45634 -0.10597,-0.92144 -0.50056,-1.17751l-0.00252,-0.00328l-4.97818,-3.37331c-0.23094,-0.15649 -0.35946,-0.42132 -0.33703,-0.69491c0.02243,-0.27468 0.1926,-0.51489 0.44598,-0.63253c0.25349,-0.11819 0.55149,-0.09357 0.78152,0.06292l5.14446,3.48712l0.00618,0.00438c0.54073,0.33596 1.25645,0.18932 1.61488,-0.33049c0.2425,-0.35511 0.26756,-0.81145 0.06477,-1.18955zM38.15829,19.8695l-4.63428,-6.81446l-2.76844,0.73977c-0.16983,0.04651 -0.35076,0.03447 -0.51258,-0.03392l-3.10432,-1.29679c-2.57698,-0.46728 -3.52341,0.11709 -3.75286,0.30915c-0.03021,0.02517 -0.05779,0.05362 -0.08263,0.08481c-0.03204,0.06128 -0.07656,0.11655 -0.13081,0.16142c-0.50594,0.41749 -1.05721,0.77972 -1.64394,1.07902c-0.27592,0.14117 -0.42503,0.44321 -0.36713,0.74306c0.04612,0.28672 0.28095,0.50832 0.57449,0.54115c1.25828,0.16196 2.53693,-0.05909 3.66337,-0.63143c0.25269,-0.14281 0.56465,-0.13515 0.81013,0.0186l2.30438,1.43687c0.03799,0.01094 0.07496,0.02572 0.11055,0.04213l7.74696,4.89335c0.09247,0.06785 0.1807,0.14117 0.26379,0.22051zM42.49823,20.39697l-7.05837,-10.58611l-1.48212,1.11185l7.02164,10.3262zM45.43295,18.75327v-16.43536l-8.74546,6.55784l7.17327,10.75847z"/>
</svg>