<svg xmlns="http://www.w3.org/2000/svg" version="1.1" viewBox="0 0 44 44">
    <path d="M32.64475,16.19853c-2.73926,0 -4.96754,-2.21331 -4.96754,-4.93329c0,-2.71999 2.22828,-4.9322 4.96754,-4.9322c2.73937,0 4.96788,2.21221 4.96788,4.9322c0,2.71999 -2.22851,4.93329 -4.96788,4.93329zM32.64475,7.74146c-1.95648,0 -3.54824,1.58023 -3.54824,3.52378c0,1.943 1.59176,3.52323 3.54824,3.52323c1.9566,0 3.54858,-1.58023 3.54858,-3.52323c0,-1.94355 -1.59199,-3.52378 -3.54858,-3.52378zM14.19321,23.24609c3.52146,0 6.38718,2.84529 6.38718,6.34225c0,3.49751 -2.86572,6.3428 -6.38718,6.3428c-3.52146,0 -6.38706,-2.84529 -6.38706,-6.3428c0,-3.49697 2.8656,-6.34225 6.38706,-6.34225zM14.19321,34.52218c2.73937,0 4.96777,-2.21221 4.96777,-4.93384c0,-2.71999 -2.22839,-4.93329 -4.96777,-4.93329c-2.73937,0 -4.96777,2.21331 -4.96777,4.93329c0,2.72163 2.22839,4.93384 4.96777,4.93384zM8.5158,10.56103c-1.17382,0 -2.12906,-0.94989 -2.12906,-2.11427c0,-1.16657 0.95524,-2.11372 2.12906,-2.11372c1.17382,0 2.12906,0.94715 2.12906,2.11372c0,1.16438 -0.95524,2.11427 -2.12906,2.11427zM8.5158,7.74146c-0.39104,0 -0.70965,0.31681 -0.70965,0.7053c0,0.38849 0.3186,0.70421 0.70965,0.70421c0.39104,0 0.70965,-0.31572 0.70965,-0.70421c0,-0.38849 -0.3186,-0.7053 -0.70965,-0.7053zM8.5158,-0.0114h23.72658c6.48296,0 11.75732,5.23916 11.75732,11.67662c0,2.62697 -0.90694,5.20688 -2.56119,7.27354l-16.26022,19.60458c-2.70882,3.26661 -6.70715,5.13957 -10.9687,5.13957c-7.83554,0 -14.2099,-6.32967 -14.2099,-14.11098v-21.12516c0,-4.66354 3.82015,-8.45816 8.51612,-8.45816zM1.45525,7.74146h1.4328c0.12989,-1.02759 0.53867,-1.96763 1.14899,-2.74734l-1.0128,-1.00515c-0.8614,1.04455 -1.42708,2.33751 -1.56898,3.7525zM4.02777,2.99312l1.01212,1.00461c0.78484,-0.60627 1.73161,-1.01281 2.76627,-1.1403v-1.42319c-1.42502,0.14117 -2.72655,0.70311 -3.77838,1.55889zM4.2578,8.44677c0,2.33095 1.90968,4.22744 4.258,4.22744c2.34833,0 4.25812,-1.89649 4.25812,-4.22744c0,-2.33314 -1.90979,-4.22963 -4.25812,-4.22963c-2.34833,0 -4.258,1.89649 -4.258,4.22963zM29.80616,1.39921h-3.08212l1.72668,1.71538c0.43568,-0.22215 0.88852,-0.40874 1.35544,-0.55811zM35.48357,1.92285v0.63362c0.46703,0.14938 0.91976,0.33596 1.35555,0.55811l0.42,-0.41913c-0.56133,-0.31079 -1.15608,-0.56851 -1.77555,-0.7726zM41.27383,6.6816l-0.42023,0.41859c0.22213,0.43281 0.41027,0.88259 0.56065,1.34659h0.63812c-0.20519,-0.61611 -0.46486,-1.20651 -0.77854,-1.76517zM41.54562,16.11865c0.31586,-0.65113 0.56419,-1.33236 0.73586,-2.03438h-0.86723c-0.15038,0.464 -0.33852,0.91268 -0.56065,1.34549zM40.33484,18.05344c0.17178,-0.21559 0.33291,-0.43664 0.48546,-0.66317l-1.73584,-1.72359l0.27958,-0.47002c0.36907,-0.62104 0.64808,-1.29078 0.83038,-1.99389l0.13767,-0.52857h2.1928c0.03342,-0.33432 0.05539,-0.67083 0.05539,-1.00898c0,-0.61885 -0.06454,-1.22128 -0.17097,-1.80949h-2.0779l-0.13699,-0.52857c-0.1823,-0.70257 -0.46211,-1.3723 -0.83038,-1.99225l-0.27958,-0.47002l1.39172,-1.3827c-0.57495,-0.75127 -1.24901,-1.4221 -2.00695,-1.9928l-1.39103,1.3827l-0.47333,-0.27851c-0.6245,-0.36551 -1.29936,-0.64238 -2.00695,-0.82404l-0.53375,-0.13789v-2.06229c-0.59258,-0.1067 -1.19934,-0.17017 -1.82178,-0.17017h-1.01692v2.23246l-0.53215,0.13625c-0.70759,0.18111 -1.38256,0.45853 -2.00706,0.82404l-0.47333,0.27742l-1.5897,-1.57804l-2.00775,1.99334l1.58981,1.57913l-0.27969,0.46947c-0.36907,0.62049 -0.64785,1.29023 -0.83027,1.99334l-0.13767,0.52911h-2.24831v2.81848h2.24831l0.13699,0.52857c0.18242,0.70311 0.46188,1.37285 0.83027,1.99389l0.27958,0.47002l-1.5897,1.57804l2.00775,1.99444l1.58958,-1.57913l0.47344,0.27796c0.6245,0.36606 1.29948,0.64347 2.00706,0.82459l0.53284,0.13679v2.23246h2.83871v-2.23246l0.53238,-0.13625c0.70747,-0.18111 1.38233,-0.45908 2.00695,-0.82404l0.47321,-0.27851l1.96518,1.95176zM25.54804,35.88026l2.2958,-2.76814h-2.13112c-0.22144,0.71515 -0.51086,1.41006 -0.86586,2.07323zM17.74088,41.76344h0.0008c0.91198,-0.25936 1.78757,-0.61721 2.61589,-1.07027l-0.52872,-0.52474c-0.66856,0.35238 -1.36757,0.63964 -2.08797,0.85961zM10.64486,41.7618v-0.7343c-0.72029,-0.21942 -1.41941,-0.50723 -2.08797,-0.85961l-0.52288,0.51981c0.81963,0.45142 1.69464,0.80981 2.61086,1.0741zM3.01577,35.70407l0.52311,-0.51872c-0.35488,-0.66317 -0.64442,-1.35808 -0.86586,-2.07323h-0.73883c0.26688,0.90994 0.62748,1.7794 1.08158,2.59195zM1.41909,29.57193c0,0.72774 0.07599,1.43632 0.19444,2.13123h2.1468l0.13699,0.52911c0.24616,0.94989 0.62794,1.86421 1.134,2.7167l0.27958,0.46947l-1.51302,1.50308c0.82901,1.15617 1.84662,2.16734 3.01048,2.99029l1.51302,-1.50198l0.47344,0.27742c0.85796,0.50176 1.77841,0.88149 2.73571,1.12662l0.53375,0.1346v2.13232c0.69901,0.11819 1.41289,0.19315 2.14531,0.19315c0.71606,0 1.41872,-0.0777 2.11269,-0.1926v-2.13287l0.53307,-0.13515c0.95718,-0.24513 1.87763,-0.62432 2.73571,-1.12717l0.47333,-0.27742l1.52721,1.51676c0.91484,-0.64402 1.7601,-1.39693 2.49104,-2.27842l0.55859,-0.67466l-1.56555,-1.55396l0.27946,-0.47057c0.50606,-0.85194 0.88783,-1.76572 1.13411,-2.71725l0.13699,-0.52747h2.34123v-4.22908h-2.34123l-0.13699,-0.52911c-0.24628,-0.95098 -0.62805,-1.86476 -1.13411,-2.7167l-0.27946,-0.47002l1.6555,-1.64425l-3.01105,-2.98974l-1.65573,1.6437l-0.47333,-0.27796c-0.85808,-0.5023 -1.77853,-0.88149 -2.73571,-1.12498l-0.53307,-0.13734v-2.32438h-4.258v2.32438l-0.53307,0.13734c-0.9573,0.24349 -1.87775,0.62268 -2.73571,1.12498l-0.47344,0.27796l-1.65562,-1.6437l-3.01117,2.98974l1.65562,1.64425l-0.27958,0.47002c-0.50606,0.85194 -0.88783,1.76572 -1.134,2.7167l-0.13699,0.52911h-2.34123zM1.41909,26.06457h1.25393c0.22144,-0.7146 0.51098,-1.40951 0.86586,-2.07378l-1.89137,-1.87734l5.01823,-4.98308l1.89114,1.87734c0.66856,-0.35128 1.36768,-0.63964 2.08797,-0.85906v-2.65542h7.09682v2.65542c0.72029,0.21942 1.4193,0.50777 2.08786,0.85906l1.89125,-1.87734l5.01812,4.98308l-1.89137,1.87734c0.355,0.66427 0.64442,1.35917 0.86586,2.07378h2.67345v6.39369l9.74876,-11.75377l-1.2965,-1.28695c-0.43579,0.22051 -0.88852,0.40709 -1.35555,0.55593v2.56842h-5.67741v-2.56842c-0.46692,-0.14883 -0.91976,-0.33542 -1.35544,-0.55593l-1.82751,1.81387l-4.01459,-3.98669l1.82739,-1.81497c-0.22213,-0.43281 -0.41016,-0.88149 -0.56065,-1.34549h-2.58533v-5.6375h2.58533c0.15049,-0.464 0.33852,-0.91377 0.56065,-1.34659l-1.82739,-1.81497l3.91388,-3.88601h-17.29706v1.45821c1.03466,0.12749 1.98154,0.53404 2.76638,1.1403l1.04107,-1.03361l1.00342,0.99694l-1.04095,1.03306c0.61031,0.77972 1.01898,1.71976 1.14887,2.74734h1.46828v1.40951h-1.46828c-0.12989,1.02759 -0.53856,1.96763 -1.14887,2.7468l1.04095,1.03415l-1.00342,0.99585l-1.04107,-1.03306c-0.78484,0.60517 -1.73172,1.01172 -2.76638,1.1403v1.45821h-1.4193v-1.45821c-1.03466,-0.12859 -1.98143,-0.53513 -2.76627,-1.1403l-1.04118,1.03306l-1.00342,-0.99585l1.04107,-1.03415c-0.61043,-0.77917 -1.0191,-1.71921 -1.14899,-2.7468h-1.46828zM14.90286,30.29256h-1.4193v-1.40896h1.4193zM12.06427,30.29256h-1.41941v-1.40896h1.41941zM14.90286,27.47408h-1.4193v-1.40951h1.4193zM17.74168,30.29256h-1.41941v-1.40896h1.41941zM14.90286,33.11213h-1.4193v-1.40896h1.4193z"/>
</svg>