<?xml version="1.0" encoding="utf-8"?>
<!-- Generator: Adobe Illustrator 22.1.0, SVG Export Plug-In . SVG Version: 6.00 Build 0)  -->
<svg version="1.1" id="Слой_1" xmlns="http://www.w3.org/2000/svg" xmlns:xlink="http://www.w3.org/1999/xlink" x="0px" y="0px"
	 viewBox="0 0 7 12" style="enable-background:new 0 0 7 12;" xml:space="preserve">
<path fill="#312d2e" d="M0.7,0.1L0.1,0.7C0,0.8,0,0.9,0,1c0,0.1,0,0.2,0.1,0.3L4.8,6l-4.7,4.7C0,10.8,0,10.9,0,11c0,0.1,0,0.2,0.1,0.3l0.6,0.6
	C0.8,12,0.9,12,1,12c0.1,0,0.2,0,0.3-0.1l5.6-5.6C6.9,6.2,7,6.1,7,6c0-0.1,0-0.2-0.1-0.3L1.3,0.1C1.2,0,1.1,0,1,0
	C0.9,0,0.8,0,0.7,0.1L0.7,0.1z"/>
</svg>
