<?xml version="1.0" encoding="utf-8"?>
<!-- Generator: Adobe Illustrator 22.1.0, SVG Export Plug-In . SVG Version: 6.00 Build 0)  -->
<svg version="1.1" id="Слой_1" xmlns="http://www.w3.org/2000/svg" xmlns:xlink="http://www.w3.org/1999/xlink" x="0px" y="0px"
	 viewBox="0 0 7 12" style="enable-background:new 0 0 7 12;" xml:space="preserve">
<path fill="#312d2e" d="M6.3,11.9l0.6-0.6C6.9,11.2,7,11.2,7,11c0-0.1,0-0.2-0.1-0.3L2.1,6l4.7-4.7C6.9,1.2,7,1.1,7,1c0-0.1,0-0.2-0.1-0.3L6.3,0.1
	C6.2,0,6.1,0,6,0C5.9,0,5.8,0,5.7,0.1L0.1,5.7C0,5.8,0,5.9,0,6c0,0.1,0,0.2,0.1,0.3l5.6,5.6C5.8,12,5.9,12,6,12
	C6.1,12,6.2,12,6.3,11.9L6.3,11.9z"/>
</svg>
