<?xml version="1.0" encoding="utf-8"?>
<!-- Generator: Adobe Illustrator 22.1.0, SVG Export Plug-In . SVG Version: 6.00 Build 0)  -->
<svg version="1.1" id="Слой_1" xmlns="http://www.w3.org/2000/svg" xmlns:xlink="http://www.w3.org/1999/xlink" x="0px" y="0px"
	 viewBox="0 0 17.5 25.5" style="enable-background:new 0 0 17.5 25.5;" xml:space="preserve">
<style type="text/css">
	.st0{fill:none;stroke:#231F20;enable-background:new    ;}
</style>
<path class="st0" d="M8.9,1.9L8.9,1.9c3.9,0,7,3.1,7,7v8c0,3.9-3.1,7-7,7l0,0c-3.9,0-7-3.1-7-7v-8C1.9,5,5,1.9,8.9,1.9z"/>
<path d="M8.8,4.5C9,4.5,9.3,4.7,9.3,5v4c0,0.3-0.2,0.5-0.5,0.5S8.3,9.3,8.3,9V5C8.3,4.7,8.5,4.5,8.8,4.5z"/>
</svg>
