<svg xmlns="http://www.w3.org/2000/svg" width="12" height="16" viewBox="0 0 12 16"><g><g opacity=".6"><path fill="#231f20" d="M11.49 15.995H.493a.5.5 0 0 1-.5-.5V.502a.5.5 0 0 1 .5-.5h8.224a.498.498 0 0 1 .373.143l2.74 2.69a.498.498 0 0 1 .158.365v12.295a.5.5 0 0 1-.5.5zM.993 1.002v13.992h9.995V3.701H8.741a.5.5 0 0 1-.5-.5V1zM9.24 2.7h1.027L9.24 1.693zm.34 6.381H2.654a.5.5 0 1 1 0-1H9.58a.5.5 0 1 1 0 1zm0-2.098H2.654a.5.5 0 0 1 0-1H9.58a.5.5 0 0 1 0 1zm0 4.198H2.654a.5.5 0 0 1 0-1H9.58a.5.5 0 0 1 0 1zm0 2.098H2.654a.5.5 0 1 1 0-1H9.58a.5.5 0 1 1 0 1z"/></g></g></svg>