<svg xmlns="http://www.w3.org/2000/svg" width="15" height="15" viewBox="0 0 15 15"><g><g opacity=".7"><path fill="#fff" d="M2.477 14.997H.468A.469.469 0 0 1 0 14.528V11.1c0-.258.21-.468.468-.468h2.01c.258 0 .468.21.468.468v3.43c0 .258-.21.468-.469.468zm-1.54-.937H2.01v-2.491H.937zm5.558.937H4.486a.469.469 0 0 1-.469-.469V4.853c0-.259.21-.47.47-.47h2.008a.47.47 0 0 1 .469.47v9.675c0 .26-.21.469-.469.469zm-1.54-.937h1.071V5.322H4.955zm5.558.937H8.504a.469.469 0 0 1-.469-.469v-6.47c0-.259.21-.468.469-.468h2.009c.259 0 .469.21.469.468v6.47c0 .26-.21.469-.47.469zm-1.54-.937h1.071V8.527H8.973zm5.558.937h-2.01a.469.469 0 0 1-.468-.469V.466c0-.259.21-.469.469-.469h2.009c.259 0 .469.21.469.469v14.062c0 .26-.21.469-.47.469zm-1.54-.937h1.071V.935h-1.071z"/><path fill="#575757" d="M2.477 14.997H.468A.469.469 0 0 1 0 14.528V11.1c0-.258.21-.468.468-.468h2.01c.258 0 .468.21.468.468v3.43c0 .258-.21.468-.469.468zm-1.54-.937H2.01v-2.491H.937zm5.558.937H4.486a.469.469 0 0 1-.469-.469V4.853c0-.259.21-.47.47-.47h2.008a.47.47 0 0 1 .469.47v9.675c0 .26-.21.469-.469.469zm-1.54-.937h1.071V5.322H4.955zm5.558.937H8.504a.469.469 0 0 1-.469-.469v-6.47c0-.259.21-.468.469-.468h2.009c.259 0 .469.21.469.468v6.47c0 .26-.21.469-.47.469zm-1.54-.937h1.071V8.527H8.973zm5.558.937h-2.01a.469.469 0 0 1-.468-.469V.466c0-.259.21-.469.469-.469h2.009c.259 0 .469.21.469.469v14.062c0 .26-.21.469-.47.469zm-1.54-.937h1.071V.935h-1.071z"/></g></g></svg>