<svg xmlns="http://www.w3.org/2000/svg" viewBox="0 0 17 14">
    <path d="M1.257,6.711 L4.950,8.095 L6.379,12.706 C6.470,13.002 6.830,13.111 7.069,12.915 L9.128,11.231 C9.343,11.054 9.651,11.046 9.876,11.211 L13.589,13.914 C13.845,14.102 14.207,13.961 14.271,13.651 L16.991,0.525 C17.061,0.186 16.729,-0.096 16.408,0.028 L1.252,5.894 C0.878,6.038 0.882,6.570 1.257,6.711 ZM6.149,7.358 L13.366,2.899 C13.495,2.818 13.629,2.994 13.517,3.097 L7.561,8.653 C7.352,8.848 7.217,9.110 7.179,9.394 L6.976,10.903 C6.949,11.105 6.667,11.124 6.611,10.929 L5.831,8.179 C5.742,7.864 5.872,7.529 6.149,7.358 Z"/>
</svg>