<svg xmlns="http://www.w3.org/2000/svg" viewBox="0 0 16 16">
    <path d="M15.836,8.274 C15.705,8.438 15.499,8.531 15.277,8.531 C15.252,8.531 15.228,8.531 15.203,8.528 C14.954,8.505 14.739,8.367 14.628,8.161 C14.550,8.010 14.538,7.876 14.522,7.529 C14.497,7.014 14.461,6.671 14.386,6.268 C14.097,4.712 13.334,3.471 12.119,2.581 C11.126,1.852 10.233,1.551 8.825,1.470 C8.344,1.444 8.184,1.428 8.000,1.291 C7.837,1.166 7.741,0.967 7.734,0.744 C7.727,0.521 7.811,0.314 7.965,0.179 C8.166,0.000 8.336,-0.011 8.771,0.002 C9.000,0.011 9.329,0.036 9.504,0.057 C10.371,0.162 10.963,0.289 11.800,0.687 C12.590,1.065 13.107,1.430 13.778,2.083 C14.408,2.700 14.762,3.176 15.133,3.903 C15.654,4.924 15.943,6.113 15.993,7.435 C16.010,7.862 16.011,8.062 15.836,8.274 ZM9.150,4.005 C9.283,4.013 9.497,4.036 9.624,4.062 C10.176,4.177 10.603,4.387 10.968,4.721 C11.440,5.156 11.699,5.682 11.811,6.425 C11.882,6.890 11.871,7.187 11.606,7.426 L11.605,7.427 C11.476,7.542 11.300,7.600 11.123,7.600 C10.961,7.600 10.797,7.551 10.668,7.454 C10.462,7.302 10.406,7.118 10.374,6.827 C10.344,6.520 10.291,6.306 10.199,6.109 C10.016,5.726 9.693,5.533 9.118,5.464 C8.774,5.423 8.604,5.376 8.438,5.186 C8.294,5.018 8.237,4.797 8.281,4.577 C8.326,4.356 8.464,4.172 8.662,4.073 C8.825,3.993 8.920,3.991 9.150,4.005 ZM8.053,2.236 C8.295,1.867 8.707,1.896 9.261,1.977 C10.894,2.211 12.146,2.944 12.982,4.159 C13.443,4.829 13.740,5.637 13.840,6.491 C13.862,6.682 13.896,7.360 13.821,7.548 C13.762,7.696 13.611,7.858 13.462,7.934 C13.377,7.977 13.265,7.998 13.151,7.998 C13.022,7.998 12.890,7.972 12.789,7.919 C12.419,7.737 12.389,7.386 12.389,7.012 C12.389,6.405 12.230,5.776 11.955,5.285 C11.641,4.722 11.182,4.255 10.627,3.934 L10.626,3.934 C10.150,3.657 9.423,3.443 8.774,3.393 C8.547,3.375 8.291,3.329 8.112,3.126 C7.888,2.875 7.863,2.517 8.053,2.236 ZM6.840,9.639 C7.405,10.145 7.906,10.492 8.463,10.761 C9.124,11.083 9.530,11.176 9.777,11.063 C9.838,11.035 9.888,11.009 9.920,10.990 C9.919,10.990 9.989,10.912 10.322,10.510 C10.632,10.127 10.792,9.947 11.010,9.832 C11.073,9.799 11.141,9.771 11.235,9.740 C11.665,9.598 12.103,9.635 12.537,9.852 C12.832,10.000 13.461,10.382 13.860,10.654 C14.372,11.004 15.520,11.912 15.700,12.124 C15.886,12.349 15.986,12.608 15.999,12.898 L15.999,12.898 C16.008,13.119 15.967,13.347 15.877,13.575 C15.780,13.819 15.586,14.105 15.439,14.300 C15.166,14.668 14.826,15.040 14.529,15.296 C14.467,15.350 14.406,15.401 14.348,15.443 C14.300,15.480 14.254,15.512 14.209,15.543 C13.949,15.721 13.722,15.837 13.495,15.907 C13.333,15.956 13.163,15.985 12.973,15.993 C12.912,15.996 12.856,15.998 12.804,15.998 C12.509,15.998 12.316,15.946 11.897,15.777 C11.551,15.638 11.191,15.481 10.797,15.299 L10.694,15.251 C10.361,15.097 10.029,14.929 9.680,14.744 L9.549,14.673 C9.212,14.491 8.885,14.303 8.578,14.114 L8.491,14.060 C6.377,12.751 4.599,11.137 3.055,9.127 C2.910,8.938 2.770,8.749 2.634,8.559 C2.565,8.462 2.498,8.365 2.431,8.267 L2.252,8.007 C2.138,7.837 2.029,7.666 1.922,7.495 L1.894,7.452 C1.786,7.276 1.682,7.104 1.582,6.928 L1.555,6.885 C1.055,6.016 0.634,5.124 0.306,4.240 C-0.039,3.313 -0.136,2.760 0.244,2.122 C0.405,1.858 0.999,1.306 1.384,1.025 C2.087,0.515 2.405,0.332 2.695,0.272 C2.905,0.227 3.242,0.256 3.476,0.339 C3.586,0.376 3.741,0.455 3.835,0.515 C4.407,0.884 5.778,2.639 6.210,3.464 C6.500,4.017 6.588,4.431 6.488,4.768 C6.384,5.132 6.189,5.327 5.575,5.812 C5.435,5.922 5.300,6.034 5.208,6.119 C5.181,6.142 5.162,6.160 5.144,6.177 L5.118,6.203 C5.058,6.304 5.003,6.483 5.003,6.608 C5.006,6.930 5.232,7.623 5.605,8.221 C5.874,8.654 6.358,9.211 6.840,9.639 Z"/>
</svg>