<svg xmlns="http://www.w3.org/2000/svg" viewBox="0 0 18 10">
    <path d="M17.934,0.642 C17.897,0.587 17.799,0.537 17.643,0.492 C17.487,0.446 17.287,0.438 17.043,0.469 L14.340,0.487 C14.277,0.481 14.215,0.483 14.152,0.492 C14.089,0.501 14.049,0.511 14.030,0.520 C14.011,0.528 13.996,0.536 13.983,0.542 L13.946,0.569 C13.914,0.587 13.880,0.620 13.842,0.665 C13.805,0.711 13.773,0.764 13.749,0.824 C13.454,1.561 13.120,2.244 12.744,2.877 C12.513,3.253 12.300,3.580 12.106,3.856 C11.912,4.133 11.750,4.337 11.618,4.467 C11.487,4.599 11.368,4.703 11.262,4.782 C11.155,4.861 11.074,4.895 11.017,4.883 C10.961,4.870 10.908,4.858 10.858,4.845 C10.770,4.791 10.700,4.717 10.647,4.622 C10.594,4.528 10.558,4.410 10.539,4.267 C10.520,4.124 10.509,4.001 10.506,3.898 C10.503,3.794 10.504,3.648 10.511,3.460 C10.517,3.271 10.520,3.144 10.520,3.077 C10.520,2.846 10.525,2.595 10.534,2.324 C10.544,2.054 10.551,1.840 10.558,1.682 C10.564,1.523 10.567,1.357 10.567,1.180 C10.567,1.004 10.556,0.865 10.534,0.765 C10.512,0.665 10.479,0.568 10.436,0.474 C10.392,0.379 10.328,0.307 10.243,0.255 C10.159,0.203 10.054,0.162 9.929,0.131 C9.597,0.059 9.175,0.019 8.662,0.013 C7.498,0.001 6.751,0.074 6.419,0.233 C6.288,0.300 6.169,0.390 6.062,0.506 C5.950,0.639 5.934,0.712 6.016,0.724 C6.391,0.778 6.657,0.910 6.813,1.117 L6.869,1.226 C6.913,1.305 6.957,1.445 7.001,1.646 C7.045,1.846 7.073,2.068 7.085,2.311 C7.117,2.754 7.117,3.134 7.085,3.451 C7.054,3.767 7.024,4.013 6.996,4.189 C6.968,4.366 6.926,4.509 6.869,4.618 C6.813,4.727 6.776,4.795 6.757,4.819 C6.738,4.843 6.722,4.858 6.710,4.864 C6.629,4.895 6.544,4.910 6.457,4.910 C6.369,4.910 6.262,4.867 6.137,4.782 C6.012,4.698 5.882,4.580 5.748,4.431 C5.613,4.282 5.462,4.075 5.293,3.806 C5.124,3.538 4.949,3.223 4.767,2.858 L4.617,2.593 C4.523,2.423 4.395,2.176 4.232,1.851 C4.070,1.525 3.926,1.211 3.801,0.907 C3.750,0.778 3.675,0.682 3.575,0.616 L3.528,0.587 C3.497,0.563 3.447,0.537 3.378,0.511 C3.309,0.483 3.238,0.463 3.162,0.451 L0.591,0.469 C0.328,0.469 0.150,0.527 0.056,0.642 L0.019,0.697 C-0.000,0.728 -0.010,0.776 -0.010,0.843 C-0.010,0.910 0.009,0.992 0.047,1.089 C0.422,1.945 0.830,2.773 1.271,3.569 C1.713,4.366 2.096,5.007 2.421,5.493 C2.746,5.980 3.078,6.438 3.416,6.871 C3.754,7.303 3.977,7.578 4.087,7.700 C4.196,7.822 4.282,7.913 4.345,7.974 L4.580,8.193 C4.730,8.338 4.950,8.513 5.241,8.717 C5.532,8.920 5.854,9.121 6.208,9.319 C6.561,9.516 6.973,9.678 7.442,9.802 C7.911,9.927 8.368,9.977 8.812,9.952 L9.891,9.952 C10.110,9.934 10.276,9.867 10.389,9.752 L10.426,9.707 C10.451,9.669 10.475,9.614 10.497,9.537 C10.519,9.462 10.530,9.378 10.530,9.286 C10.523,9.025 10.544,8.790 10.591,8.580 C10.637,8.370 10.691,8.213 10.750,8.106 C10.809,7.999 10.877,7.910 10.952,7.837 C11.027,7.764 11.080,7.719 11.111,7.705 C11.143,7.690 11.168,7.679 11.186,7.672 C11.337,7.624 11.513,7.671 11.717,7.814 C11.920,7.957 12.111,8.133 12.289,8.342 C12.467,8.553 12.682,8.789 12.932,9.049 C13.182,9.311 13.401,9.505 13.589,9.633 L13.777,9.742 C13.902,9.816 14.064,9.883 14.265,9.943 C14.465,10.004 14.640,10.020 14.790,9.989 L17.193,9.952 C17.430,9.952 17.615,9.914 17.746,9.838 C17.878,9.762 17.956,9.679 17.981,9.588 C18.006,9.496 18.008,9.393 17.986,9.278 C17.964,9.162 17.942,9.082 17.920,9.036 C17.898,8.991 17.878,8.952 17.859,8.922 C17.546,8.375 16.949,7.703 16.067,6.907 L16.048,6.888 L16.038,6.880 L16.029,6.871 L16.020,6.871 C15.619,6.500 15.366,6.251 15.259,6.123 C15.065,5.880 15.022,5.633 15.128,5.384 C15.203,5.196 15.485,4.798 15.973,4.189 C16.229,3.867 16.433,3.609 16.583,3.415 C17.665,2.017 18.134,1.123 17.990,0.733 L17.934,0.642 Z"/>
</svg>