<svg xmlns="http://www.w3.org/2000/svg" viewBox="0 0 17 17">
    <path d="M8.502,-0.002 L8.498,-0.002 C3.811,-0.002 -0.000,3.810 -0.000,8.498 C-0.000,10.358 0.599,12.081 1.618,13.481 L0.559,16.638 L3.826,15.594 C5.170,16.484 6.773,16.998 8.502,16.998 C13.189,16.998 17.000,13.185 17.000,8.498 C17.000,3.812 13.189,-0.002 8.502,-0.002 ZM13.448,12.002 C13.243,12.580 12.429,13.060 11.780,13.200 C11.336,13.296 10.756,13.371 8.803,12.560 C6.305,11.526 4.696,8.988 4.571,8.823 C4.451,8.658 3.561,7.479 3.561,6.259 C3.561,5.039 4.181,4.445 4.430,4.190 C4.636,3.981 4.975,3.885 5.300,3.885 C5.405,3.885 5.499,3.891 5.584,3.896 C5.834,3.906 5.959,3.921 6.124,4.315 C6.329,4.809 6.829,6.029 6.888,6.154 C6.949,6.279 7.009,6.449 6.924,6.614 C6.845,6.785 6.774,6.859 6.649,7.004 C6.524,7.149 6.405,7.259 6.279,7.415 C6.164,7.549 6.035,7.693 6.179,7.943 C6.324,8.187 6.823,9.003 7.559,9.657 C8.507,10.502 9.276,10.771 9.552,10.886 C9.757,10.971 10.001,10.950 10.151,10.792 C10.341,10.587 10.576,10.247 10.815,9.912 C10.985,9.672 11.200,9.642 11.425,9.727 C11.654,9.807 12.869,10.408 13.119,10.531 C13.368,10.657 13.533,10.717 13.593,10.821 C13.653,10.926 13.653,11.420 13.448,12.002 Z"/>
</svg>