<svg xmlns="http://www.w3.org/2000/svg" viewBox="0 0 20 13">
    <path d="M18.849,10.016 L10.410,1.158 C10.290,1.031 10.151,0.968 9.994,0.968 C9.837,0.968 9.698,1.031 9.577,1.158 L1.139,10.016 C1.018,10.143 0.958,10.289 0.958,10.454 C0.958,10.618 1.018,10.764 1.139,10.891 L2.044,11.841 C2.165,11.968 2.304,12.032 2.461,12.032 C2.617,12.032 2.756,11.968 2.877,11.841 L9.994,4.371 L17.111,11.841 C17.231,11.968 17.370,12.032 17.527,12.032 C17.684,12.032 17.823,11.968 17.944,11.841 L18.849,10.891 C18.970,10.764 19.030,10.618 19.030,10.454 C19.030,10.289 18.970,10.143 18.849,10.016 L18.849,10.016 Z"/>
</svg>