<svg xmlns="http://www.w3.org/2000/svg" viewBox="0 0 12 10">
    <path d="M11.330,3.840 C9.866,4.894 8.754,5.712 7.995,6.296 C7.741,6.495 7.534,6.650 7.376,6.762 C7.217,6.874 7.007,6.987 6.743,7.104 C6.480,7.220 6.234,7.278 6.007,7.278 L6.000,7.278 L5.993,7.278 C5.766,7.278 5.520,7.220 5.257,7.104 C4.993,6.987 4.782,6.874 4.624,6.762 C4.465,6.650 4.259,6.495 4.004,6.296 C3.402,5.826 2.292,5.007 0.676,3.840 C0.422,3.659 0.196,3.454 -0.000,3.220 L-0.000,8.873 C-0.000,9.186 0.105,9.454 0.315,9.678 C0.524,9.901 0.777,10.012 1.071,10.012 L10.928,10.012 C11.223,10.012 11.475,9.901 11.685,9.678 C11.895,9.454 12.000,9.186 12.000,8.873 L12.000,3.220 C11.808,3.448 11.585,3.654 11.330,3.840 L11.330,3.840 ZM11.682,0.323 C11.470,0.099 11.219,-0.012 10.928,-0.012 L1.071,-0.012 C0.728,-0.012 0.463,0.112 0.278,0.359 C0.092,0.604 -0.000,0.914 -0.000,1.284 C-0.000,1.583 0.123,1.907 0.368,2.256 C0.614,2.604 0.875,2.878 1.152,3.079 C1.303,3.191 1.761,3.531 2.525,4.092 C3.288,4.655 3.873,5.088 4.279,5.391 C4.324,5.425 4.418,5.497 4.564,5.609 C4.709,5.720 4.829,5.811 4.925,5.879 C5.021,5.948 5.137,6.026 5.273,6.110 C5.409,6.196 5.538,6.261 5.658,6.304 C5.779,6.346 5.890,6.367 5.993,6.367 L6.000,6.367 L6.007,6.367 C6.109,6.367 6.221,6.346 6.341,6.304 C6.462,6.261 6.590,6.196 6.726,6.110 C6.863,6.026 6.979,5.948 7.075,5.879 C7.171,5.811 7.291,5.720 7.436,5.609 C7.581,5.497 7.676,5.425 7.721,5.391 C8.132,5.088 9.176,4.316 10.855,3.079 C11.181,2.836 11.453,2.544 11.672,2.202 C11.890,1.861 12.000,1.502 12.000,1.128 C12.000,0.814 11.894,0.546 11.682,0.323 Z"/>
</svg>