<svg width="31" height="31" viewBox="0 0 31 31" fill="none" xmlns="http://www.w3.org/2000/svg">
<g clip-path="url(#clip0)">
<path d="M27.1368 6.18744L27.1053 6.15603V6.12462L21.1378 0.157042L21.1064 0.125633C21.1064 0.125633 21.075 0.125633 21.075 0.0942249C21.075 0.0942249 21.0435 0.0942249 21.0435 0.0628166C20.9493 0 20.8551 0 20.7295 0H5.93615C5.3708 0 4.83686 0.219858 4.45996 0.596758L4.42855 0.628166C4.05165 1.00507 3.80038 1.57042 3.80038 2.13576V28.8642C3.80038 29.461 4.05165 29.9949 4.42855 30.3718C4.80545 30.7487 5.3708 31 5.93615 31H25.0638C25.6606 31 26.1945 30.7487 26.5714 30.3718C26.9483 29.9949 27.1996 29.4296 27.1996 28.8642V6.50152C27.1996 6.37589 27.1682 6.28166 27.1368 6.18744ZM21.3262 2.2614L24.8754 5.81054H22.2685C22.0172 5.81054 21.7659 5.71631 21.6089 5.52786C21.4519 5.37082 21.3262 5.11955 21.3262 4.86829V2.2614ZM25.849 28.8642C25.849 29.0841 25.7548 29.2725 25.5978 29.4296C25.4407 29.5866 25.2523 29.6808 25.0324 29.6808H5.93615C5.71629 29.6808 5.52784 29.5866 5.3708 29.461C5.21376 29.3039 5.15094 29.1155 5.15094 28.8956V2.10436C5.15094 1.8845 5.24517 1.69605 5.40221 1.53901L5.43362 1.5076C5.59066 1.38197 5.77911 1.28774 5.96756 1.28774H20.0385V4.83688C20.0385 5.46504 20.2897 6.03039 20.7295 6.47011C21.1378 6.87842 21.7345 7.12969 22.3627 7.12969H25.849V28.8642Z" fill="#4D4D4D"/>
<path d="M17.2988 18.2422L18.3926 12.8906H19.6182L17.9775 20H16.7959L15.4434 14.8096L14.0615 20H12.875L11.2344 12.8906H12.46L13.5635 18.2324L14.9209 12.8906H15.9561L17.2988 18.2422Z" fill="#4D4D4D"/>
</g>
<defs>
<clipPath id="clip0">
<rect width="31" height="31" fill="white"/>
</clipPath>
</defs>
</svg>
