<svg xmlns="http://www.w3.org/2000/svg" viewBox="0 0 14 7">
    <path d="M12.899,0.707 L12.296,0.107 C12.215,0.027 12.123,-0.013 12.018,-0.013 C11.913,-0.013 11.821,0.027 11.740,0.107 L6.996,4.823 L2.251,0.107 C2.171,0.027 2.078,-0.013 1.974,-0.013 C1.869,-0.013 1.777,0.027 1.696,0.107 L1.093,0.707 C1.012,0.788 0.972,0.879 0.972,0.983 C0.972,1.087 1.012,1.180 1.093,1.260 L6.718,6.851 C6.799,6.931 6.891,6.972 6.996,6.972 C7.100,6.972 7.193,6.931 7.274,6.851 L12.899,1.260 C12.980,1.180 13.020,1.087 13.020,0.983 C13.020,0.879 12.980,0.788 12.899,0.707 L12.899,0.707 Z"/>
</svg>